<mxfile host="app.diagrams.net" modified="2024-05-28T16:07:07.464Z" agent="Mozilla/5.0 (Windows NT 10.0; Win64; x64) AppleWebKit/537.36 (KHTML, like Gecko) Chrome/125.0.0.0 Safari/537.36" etag="TRLMXx4Hhif2Y0a80-_p" version="24.4.9" type="github">
  <diagram name="Strona-1" id="3-vl3ONbKSAuAggZ8wBg">
    <mxGraphModel dx="1843" dy="746" grid="1" gridSize="10" guides="1" tooltips="1" connect="1" arrows="1" fold="1" page="1" pageScale="1" pageWidth="827" pageHeight="1169" math="0" shadow="0">
      <root>
        <mxCell id="0" />
        <mxCell id="1" parent="0" />
        <mxCell id="fdN_00i1N7_ZULbD0-KX-243" value="" style="whiteSpace=wrap;html=1;aspect=fixed;" parent="1" vertex="1">
          <mxGeometry x="920" y="10" width="666" height="666" as="geometry" />
        </mxCell>
        <mxCell id="fdN_00i1N7_ZULbD0-KX-1" value="Map" style="swimlane;fontStyle=1;align=center;verticalAlign=top;childLayout=stackLayout;horizontal=1;startSize=26;horizontalStack=0;resizeParent=1;resizeParentMax=0;resizeLast=0;collapsible=1;marginBottom=0;whiteSpace=wrap;html=1;" parent="1" vertex="1">
          <mxGeometry x="660" y="210" width="160" height="140" as="geometry" />
        </mxCell>
        <mxCell id="fdN_00i1N7_ZULbD0-KX-2" value="static Tile [][] Map&amp;nbsp;" style="text;strokeColor=none;fillColor=none;align=left;verticalAlign=top;spacingLeft=4;spacingRight=4;overflow=hidden;rotatable=0;points=[[0,0.5],[1,0.5]];portConstraint=eastwest;whiteSpace=wrap;html=1;" parent="fdN_00i1N7_ZULbD0-KX-1" vertex="1">
          <mxGeometry y="26" width="160" height="26" as="geometry" />
        </mxCell>
        <mxCell id="fdN_00i1N7_ZULbD0-KX-3" value="" style="line;strokeWidth=1;fillColor=none;align=left;verticalAlign=middle;spacingTop=-1;spacingLeft=3;spacingRight=3;rotatable=0;labelPosition=right;points=[];portConstraint=eastwest;strokeColor=inherit;" parent="fdN_00i1N7_ZULbD0-KX-1" vertex="1">
          <mxGeometry y="52" width="160" height="8" as="geometry" />
        </mxCell>
        <mxCell id="fdN_00i1N7_ZULbD0-KX-21" value="static initailizeMap(String)" style="text;strokeColor=none;fillColor=none;align=left;verticalAlign=top;spacingLeft=4;spacingRight=4;overflow=hidden;rotatable=0;points=[[0,0.5],[1,0.5]];portConstraint=eastwest;whiteSpace=wrap;html=1;" parent="fdN_00i1N7_ZULbD0-KX-1" vertex="1">
          <mxGeometry y="60" width="160" height="26" as="geometry" />
        </mxCell>
        <mxCell id="fdN_00i1N7_ZULbD0-KX-44" value="static placeOnMap(Tile)" style="text;strokeColor=none;fillColor=none;align=left;verticalAlign=top;spacingLeft=4;spacingRight=4;overflow=hidden;rotatable=0;points=[[0,0.5],[1,0.5]];portConstraint=eastwest;whiteSpace=wrap;html=1;" parent="fdN_00i1N7_ZULbD0-KX-1" vertex="1">
          <mxGeometry y="86" width="160" height="54" as="geometry" />
        </mxCell>
        <mxCell id="fdN_00i1N7_ZULbD0-KX-5" value="Tile" style="swimlane;fontStyle=1;align=center;verticalAlign=top;childLayout=stackLayout;horizontal=1;startSize=26;horizontalStack=0;resizeParent=1;resizeParentMax=0;resizeLast=0;collapsible=1;marginBottom=0;whiteSpace=wrap;html=1;" parent="1" vertex="1">
          <mxGeometry x="660" y="412" width="160" height="346" as="geometry" />
        </mxCell>
        <mxCell id="fdN_00i1N7_ZULbD0-KX-13" value="- Tile parent" style="text;strokeColor=none;fillColor=none;align=left;verticalAlign=top;spacingLeft=4;spacingRight=4;overflow=hidden;rotatable=0;points=[[0,0.5],[1,0.5]];portConstraint=eastwest;whiteSpace=wrap;html=1;" parent="fdN_00i1N7_ZULbD0-KX-5" vertex="1">
          <mxGeometry y="26" width="160" height="26" as="geometry" />
        </mxCell>
        <mxCell id="fdN_00i1N7_ZULbD0-KX-6" value="- int col" style="text;strokeColor=none;fillColor=none;align=left;verticalAlign=top;spacingLeft=4;spacingRight=4;overflow=hidden;rotatable=0;points=[[0,0.5],[1,0.5]];portConstraint=eastwest;whiteSpace=wrap;html=1;" parent="fdN_00i1N7_ZULbD0-KX-5" vertex="1">
          <mxGeometry y="52" width="160" height="26" as="geometry" />
        </mxCell>
        <mxCell id="fdN_00i1N7_ZULbD0-KX-10" value="- int row" style="text;strokeColor=none;fillColor=none;align=left;verticalAlign=top;spacingLeft=4;spacingRight=4;overflow=hidden;rotatable=0;points=[[0,0.5],[1,0.5]];portConstraint=eastwest;whiteSpace=wrap;html=1;" parent="fdN_00i1N7_ZULbD0-KX-5" vertex="1">
          <mxGeometry y="78" width="160" height="26" as="geometry" />
        </mxCell>
        <mxCell id="fdN_00i1N7_ZULbD0-KX-11" value="- bolean solid" style="text;strokeColor=none;fillColor=none;align=left;verticalAlign=top;spacingLeft=4;spacingRight=4;overflow=hidden;rotatable=0;points=[[0,0.5],[1,0.5]];portConstraint=eastwest;whiteSpace=wrap;html=1;" parent="fdN_00i1N7_ZULbD0-KX-5" vertex="1">
          <mxGeometry y="104" width="160" height="26" as="geometry" />
        </mxCell>
        <mxCell id="fdN_00i1N7_ZULbD0-KX-12" value="- bolean occupaied" style="text;strokeColor=none;fillColor=none;align=left;verticalAlign=top;spacingLeft=4;spacingRight=4;overflow=hidden;rotatable=0;points=[[0,0.5],[1,0.5]];portConstraint=eastwest;whiteSpace=wrap;html=1;" parent="fdN_00i1N7_ZULbD0-KX-5" vertex="1">
          <mxGeometry y="130" width="160" height="26" as="geometry" />
        </mxCell>
        <mxCell id="fdN_00i1N7_ZULbD0-KX-14" value="- bolean checked" style="text;strokeColor=none;fillColor=none;align=left;verticalAlign=top;spacingLeft=4;spacingRight=4;overflow=hidden;rotatable=0;points=[[0,0.5],[1,0.5]];portConstraint=eastwest;whiteSpace=wrap;html=1;" parent="fdN_00i1N7_ZULbD0-KX-5" vertex="1">
          <mxGeometry y="156" width="160" height="26" as="geometry" />
        </mxCell>
        <mxCell id="fdN_00i1N7_ZULbD0-KX-15" value="- bolean open" style="text;strokeColor=none;fillColor=none;align=left;verticalAlign=top;spacingLeft=4;spacingRight=4;overflow=hidden;rotatable=0;points=[[0,0.5],[1,0.5]];portConstraint=eastwest;whiteSpace=wrap;html=1;" parent="fdN_00i1N7_ZULbD0-KX-5" vertex="1">
          <mxGeometry y="182" width="160" height="26" as="geometry" />
        </mxCell>
        <mxCell id="fdN_00i1N7_ZULbD0-KX-16" value="- int fcost" style="text;strokeColor=none;fillColor=none;align=left;verticalAlign=top;spacingLeft=4;spacingRight=4;overflow=hidden;rotatable=0;points=[[0,0.5],[1,0.5]];portConstraint=eastwest;whiteSpace=wrap;html=1;" parent="fdN_00i1N7_ZULbD0-KX-5" vertex="1">
          <mxGeometry y="208" width="160" height="26" as="geometry" />
        </mxCell>
        <mxCell id="fdN_00i1N7_ZULbD0-KX-17" value="- int gcost" style="text;strokeColor=none;fillColor=none;align=left;verticalAlign=top;spacingLeft=4;spacingRight=4;overflow=hidden;rotatable=0;points=[[0,0.5],[1,0.5]];portConstraint=eastwest;whiteSpace=wrap;html=1;" parent="fdN_00i1N7_ZULbD0-KX-5" vertex="1">
          <mxGeometry y="234" width="160" height="26" as="geometry" />
        </mxCell>
        <mxCell id="fdN_00i1N7_ZULbD0-KX-18" value="- int hcost" style="text;strokeColor=none;fillColor=none;align=left;verticalAlign=top;spacingLeft=4;spacingRight=4;overflow=hidden;rotatable=0;points=[[0,0.5],[1,0.5]];portConstraint=eastwest;whiteSpace=wrap;html=1;" parent="fdN_00i1N7_ZULbD0-KX-5" vertex="1">
          <mxGeometry y="260" width="160" height="26" as="geometry" />
        </mxCell>
        <mxCell id="fdN_00i1N7_ZULbD0-KX-7" value="" style="line;strokeWidth=1;fillColor=none;align=left;verticalAlign=middle;spacingTop=-1;spacingLeft=3;spacingRight=3;rotatable=0;labelPosition=right;points=[];portConstraint=eastwest;strokeColor=inherit;" parent="fdN_00i1N7_ZULbD0-KX-5" vertex="1">
          <mxGeometry y="286" width="160" height="8" as="geometry" />
        </mxCell>
        <mxCell id="fdN_00i1N7_ZULbD0-KX-8" value="+ Getters" style="text;strokeColor=none;fillColor=none;align=left;verticalAlign=top;spacingLeft=4;spacingRight=4;overflow=hidden;rotatable=0;points=[[0,0.5],[1,0.5]];portConstraint=eastwest;whiteSpace=wrap;html=1;" parent="fdN_00i1N7_ZULbD0-KX-5" vertex="1">
          <mxGeometry y="294" width="160" height="26" as="geometry" />
        </mxCell>
        <mxCell id="fdN_00i1N7_ZULbD0-KX-19" value="+ Setters" style="text;strokeColor=none;fillColor=none;align=left;verticalAlign=top;spacingLeft=4;spacingRight=4;overflow=hidden;rotatable=0;points=[[0,0.5],[1,0.5]];portConstraint=eastwest;whiteSpace=wrap;html=1;" parent="fdN_00i1N7_ZULbD0-KX-5" vertex="1">
          <mxGeometry y="320" width="160" height="26" as="geometry" />
        </mxCell>
        <mxCell id="fdN_00i1N7_ZULbD0-KX-22" value="SearchAlgorythm" style="swimlane;fontStyle=1;align=center;verticalAlign=top;childLayout=stackLayout;horizontal=1;startSize=26;horizontalStack=0;resizeParent=1;resizeParentMax=0;resizeLast=0;collapsible=1;marginBottom=0;whiteSpace=wrap;html=1;" parent="1" vertex="1">
          <mxGeometry x="385" y="464" width="190" height="242" as="geometry" />
        </mxCell>
        <mxCell id="fdN_00i1N7_ZULbD0-KX-23" value="+ Tile [][] tiles" style="text;strokeColor=none;fillColor=none;align=left;verticalAlign=top;spacingLeft=4;spacingRight=4;overflow=hidden;rotatable=0;points=[[0,0.5],[1,0.5]];portConstraint=eastwest;whiteSpace=wrap;html=1;" parent="fdN_00i1N7_ZULbD0-KX-22" vertex="1">
          <mxGeometry y="26" width="190" height="26" as="geometry" />
        </mxCell>
        <mxCell id="fdN_00i1N7_ZULbD0-KX-26" value="+ Arraylist open" style="text;strokeColor=none;fillColor=none;align=left;verticalAlign=top;spacingLeft=4;spacingRight=4;overflow=hidden;rotatable=0;points=[[0,0.5],[1,0.5]];portConstraint=eastwest;whiteSpace=wrap;html=1;" parent="fdN_00i1N7_ZULbD0-KX-22" vertex="1">
          <mxGeometry y="52" width="190" height="26" as="geometry" />
        </mxCell>
        <mxCell id="fdN_00i1N7_ZULbD0-KX-27" value="+ Arraylist check" style="text;strokeColor=none;fillColor=none;align=left;verticalAlign=top;spacingLeft=4;spacingRight=4;overflow=hidden;rotatable=0;points=[[0,0.5],[1,0.5]];portConstraint=eastwest;whiteSpace=wrap;html=1;" parent="fdN_00i1N7_ZULbD0-KX-22" vertex="1">
          <mxGeometry y="78" width="190" height="26" as="geometry" />
        </mxCell>
        <mxCell id="fdN_00i1N7_ZULbD0-KX-28" value="+ Tile start" style="text;strokeColor=none;fillColor=none;align=left;verticalAlign=top;spacingLeft=4;spacingRight=4;overflow=hidden;rotatable=0;points=[[0,0.5],[1,0.5]];portConstraint=eastwest;whiteSpace=wrap;html=1;" parent="fdN_00i1N7_ZULbD0-KX-22" vertex="1">
          <mxGeometry y="104" width="190" height="26" as="geometry" />
        </mxCell>
        <mxCell id="fdN_00i1N7_ZULbD0-KX-29" value="+ Tile destination" style="text;strokeColor=none;fillColor=none;align=left;verticalAlign=top;spacingLeft=4;spacingRight=4;overflow=hidden;rotatable=0;points=[[0,0.5],[1,0.5]];portConstraint=eastwest;whiteSpace=wrap;html=1;" parent="fdN_00i1N7_ZULbD0-KX-22" vertex="1">
          <mxGeometry y="130" width="190" height="26" as="geometry" />
        </mxCell>
        <mxCell id="fdN_00i1N7_ZULbD0-KX-30" value="+ Tile current" style="text;strokeColor=none;fillColor=none;align=left;verticalAlign=top;spacingLeft=4;spacingRight=4;overflow=hidden;rotatable=0;points=[[0,0.5],[1,0.5]];portConstraint=eastwest;whiteSpace=wrap;html=1;" parent="fdN_00i1N7_ZULbD0-KX-22" vertex="1">
          <mxGeometry y="156" width="190" height="26" as="geometry" />
        </mxCell>
        <mxCell id="fdN_00i1N7_ZULbD0-KX-24" value="" style="line;strokeWidth=1;fillColor=none;align=left;verticalAlign=middle;spacingTop=-1;spacingLeft=3;spacingRight=3;rotatable=0;labelPosition=right;points=[];portConstraint=eastwest;strokeColor=inherit;" parent="fdN_00i1N7_ZULbD0-KX-22" vertex="1">
          <mxGeometry y="182" width="190" height="8" as="geometry" />
        </mxCell>
        <mxCell id="fdN_00i1N7_ZULbD0-KX-25" value="+ Search(Tile, Tile); Arraylist path" style="text;strokeColor=none;fillColor=none;align=left;verticalAlign=top;spacingLeft=4;spacingRight=4;overflow=hidden;rotatable=0;points=[[0,0.5],[1,0.5]];portConstraint=eastwest;whiteSpace=wrap;html=1;" parent="fdN_00i1N7_ZULbD0-KX-22" vertex="1">
          <mxGeometry y="190" width="190" height="26" as="geometry" />
        </mxCell>
        <mxCell id="fdN_00i1N7_ZULbD0-KX-32" value="+ Clone" style="text;strokeColor=none;fillColor=none;align=left;verticalAlign=top;spacingLeft=4;spacingRight=4;overflow=hidden;rotatable=0;points=[[0,0.5],[1,0.5]];portConstraint=eastwest;whiteSpace=wrap;html=1;" parent="fdN_00i1N7_ZULbD0-KX-22" vertex="1">
          <mxGeometry y="216" width="190" height="26" as="geometry" />
        </mxCell>
        <mxCell id="fdN_00i1N7_ZULbD0-KX-40" value="MovesAndPaths" style="swimlane;fontStyle=1;align=center;verticalAlign=top;childLayout=stackLayout;horizontal=1;startSize=26;horizontalStack=0;resizeParent=1;resizeParentMax=0;resizeLast=0;collapsible=1;marginBottom=0;whiteSpace=wrap;html=1;" parent="1" vertex="1">
          <mxGeometry x="400" y="249" width="160" height="60" as="geometry" />
        </mxCell>
        <mxCell id="fdN_00i1N7_ZULbD0-KX-42" value="" style="line;strokeWidth=1;fillColor=none;align=left;verticalAlign=middle;spacingTop=-1;spacingLeft=3;spacingRight=3;rotatable=0;labelPosition=right;points=[];portConstraint=eastwest;strokeColor=inherit;" parent="fdN_00i1N7_ZULbD0-KX-40" vertex="1">
          <mxGeometry y="26" width="160" height="8" as="geometry" />
        </mxCell>
        <mxCell id="fdN_00i1N7_ZULbD0-KX-43" value="+ Static Move" style="text;strokeColor=none;fillColor=none;align=left;verticalAlign=top;spacingLeft=4;spacingRight=4;overflow=hidden;rotatable=0;points=[[0,0.5],[1,0.5]];portConstraint=eastwest;whiteSpace=wrap;html=1;" parent="fdN_00i1N7_ZULbD0-KX-40" vertex="1">
          <mxGeometry y="34" width="160" height="26" as="geometry" />
        </mxCell>
        <mxCell id="fdN_00i1N7_ZULbD0-KX-45" value="InteligenceType" style="swimlane;fontStyle=1;align=center;verticalAlign=top;childLayout=stackLayout;horizontal=1;startSize=26;horizontalStack=0;resizeParent=1;resizeParentMax=0;resizeLast=0;collapsible=1;marginBottom=0;whiteSpace=wrap;html=1;" parent="1" vertex="1">
          <mxGeometry x="120" y="210" width="210" height="138" as="geometry" />
        </mxCell>
        <mxCell id="fdN_00i1N7_ZULbD0-KX-53" value="- Arraylist&amp;lt;character&amp;gt; Enemies" style="text;strokeColor=none;fillColor=none;align=left;verticalAlign=top;spacingLeft=4;spacingRight=4;overflow=hidden;rotatable=0;points=[[0,0.5],[1,0.5]];portConstraint=eastwest;whiteSpace=wrap;html=1;" parent="fdN_00i1N7_ZULbD0-KX-45" vertex="1">
          <mxGeometry y="26" width="210" height="26" as="geometry" />
        </mxCell>
        <mxCell id="fdN_00i1N7_ZULbD0-KX-46" value="- Character owner" style="text;strokeColor=none;fillColor=none;align=left;verticalAlign=top;spacingLeft=4;spacingRight=4;overflow=hidden;rotatable=0;points=[[0,0.5],[1,0.5]];portConstraint=eastwest;whiteSpace=wrap;html=1;" parent="fdN_00i1N7_ZULbD0-KX-45" vertex="1">
          <mxGeometry y="52" width="210" height="26" as="geometry" />
        </mxCell>
        <mxCell id="fdN_00i1N7_ZULbD0-KX-54" value="- Character target" style="text;strokeColor=none;fillColor=none;align=left;verticalAlign=top;spacingLeft=4;spacingRight=4;overflow=hidden;rotatable=0;points=[[0,0.5],[1,0.5]];portConstraint=eastwest;whiteSpace=wrap;html=1;" parent="fdN_00i1N7_ZULbD0-KX-45" vertex="1">
          <mxGeometry y="78" width="210" height="26" as="geometry" />
        </mxCell>
        <mxCell id="fdN_00i1N7_ZULbD0-KX-47" value="" style="line;strokeWidth=1;fillColor=none;align=left;verticalAlign=middle;spacingTop=-1;spacingLeft=3;spacingRight=3;rotatable=0;labelPosition=right;points=[];portConstraint=eastwest;strokeColor=inherit;" parent="fdN_00i1N7_ZULbD0-KX-45" vertex="1">
          <mxGeometry y="104" width="210" height="8" as="geometry" />
        </mxCell>
        <mxCell id="fdN_00i1N7_ZULbD0-KX-48" value="+ performTurn();" style="text;strokeColor=none;fillColor=none;align=left;verticalAlign=top;spacingLeft=4;spacingRight=4;overflow=hidden;rotatable=0;points=[[0,0.5],[1,0.5]];portConstraint=eastwest;whiteSpace=wrap;html=1;" parent="fdN_00i1N7_ZULbD0-KX-45" vertex="1">
          <mxGeometry y="112" width="210" height="26" as="geometry" />
        </mxCell>
        <mxCell id="fdN_00i1N7_ZULbD0-KX-58" value="" style="endArrow=open;endFill=1;endSize=12;html=1;rounded=0;" parent="1" source="fdN_00i1N7_ZULbD0-KX-22" target="fdN_00i1N7_ZULbD0-KX-45" edge="1">
          <mxGeometry width="160" relative="1" as="geometry">
            <mxPoint x="335" y="530" as="sourcePoint" />
            <mxPoint x="495" y="530" as="targetPoint" />
          </mxGeometry>
        </mxCell>
        <mxCell id="fdN_00i1N7_ZULbD0-KX-59" value="" style="endArrow=open;endFill=1;endSize=12;html=1;rounded=0;" parent="1" source="fdN_00i1N7_ZULbD0-KX-40" target="fdN_00i1N7_ZULbD0-KX-45" edge="1">
          <mxGeometry width="160" relative="1" as="geometry">
            <mxPoint x="245" y="500" as="sourcePoint" />
            <mxPoint x="405" y="500" as="targetPoint" />
          </mxGeometry>
        </mxCell>
        <mxCell id="fdN_00i1N7_ZULbD0-KX-60" value="" style="endArrow=open;endFill=1;endSize=12;html=1;rounded=0;" parent="1" source="fdN_00i1N7_ZULbD0-KX-1" target="fdN_00i1N7_ZULbD0-KX-40" edge="1">
          <mxGeometry width="160" relative="1" as="geometry">
            <mxPoint x="335" y="430" as="sourcePoint" />
            <mxPoint x="495" y="430" as="targetPoint" />
          </mxGeometry>
        </mxCell>
        <mxCell id="fdN_00i1N7_ZULbD0-KX-64" value="Abstract Weapon" style="swimlane;fontStyle=1;align=center;verticalAlign=top;childLayout=stackLayout;horizontal=1;startSize=26;horizontalStack=0;resizeParent=1;resizeParentMax=0;resizeLast=0;collapsible=1;marginBottom=0;whiteSpace=wrap;html=1;" parent="1" vertex="1">
          <mxGeometry x="1216" y="968.5" width="160" height="216" as="geometry" />
        </mxCell>
        <mxCell id="fdN_00i1N7_ZULbD0-KX-65" value="&lt;div&gt;+NameId : int&lt;/div&gt;" style="text;strokeColor=none;fillColor=none;align=left;verticalAlign=top;spacingLeft=4;spacingRight=4;overflow=hidden;rotatable=0;points=[[0,0.5],[1,0.5]];portConstraint=eastwest;whiteSpace=wrap;html=1;" parent="fdN_00i1N7_ZULbD0-KX-64" vertex="1">
          <mxGeometry y="26" width="160" height="26" as="geometry" />
        </mxCell>
        <mxCell id="fdN_00i1N7_ZULbD0-KX-66" value="+PhisicalDamage : int&lt;div&gt;&lt;br&gt;&lt;/div&gt;" style="text;strokeColor=none;fillColor=none;align=left;verticalAlign=top;spacingLeft=4;spacingRight=4;overflow=hidden;rotatable=0;points=[[0,0.5],[1,0.5]];portConstraint=eastwest;whiteSpace=wrap;html=1;" parent="fdN_00i1N7_ZULbD0-KX-64" vertex="1">
          <mxGeometry y="52" width="160" height="26" as="geometry" />
        </mxCell>
        <mxCell id="fdN_00i1N7_ZULbD0-KX-67" value="+MagicDamage : int" style="text;strokeColor=none;fillColor=none;align=left;verticalAlign=top;spacingLeft=4;spacingRight=4;overflow=hidden;rotatable=0;points=[[0,0.5],[1,0.5]];portConstraint=eastwest;whiteSpace=wrap;html=1;" parent="fdN_00i1N7_ZULbD0-KX-64" vertex="1">
          <mxGeometry y="78" width="160" height="26" as="geometry" />
        </mxCell>
        <mxCell id="fdN_00i1N7_ZULbD0-KX-68" value="+Range : int" style="text;strokeColor=none;fillColor=none;align=left;verticalAlign=top;spacingLeft=4;spacingRight=4;overflow=hidden;rotatable=0;points=[[0,0.5],[1,0.5]];portConstraint=eastwest;whiteSpace=wrap;html=1;" parent="fdN_00i1N7_ZULbD0-KX-64" vertex="1">
          <mxGeometry y="104" width="160" height="26" as="geometry" />
        </mxCell>
        <mxCell id="fdN_00i1N7_ZULbD0-KX-69" value="+Accuracy : int" style="text;strokeColor=none;fillColor=none;align=left;verticalAlign=top;spacingLeft=4;spacingRight=4;overflow=hidden;rotatable=0;points=[[0,0.5],[1,0.5]];portConstraint=eastwest;whiteSpace=wrap;html=1;" parent="fdN_00i1N7_ZULbD0-KX-64" vertex="1">
          <mxGeometry y="130" width="160" height="26" as="geometry" />
        </mxCell>
        <mxCell id="fdN_00i1N7_ZULbD0-KX-70" value="+Hands : bool" style="text;strokeColor=none;fillColor=none;align=left;verticalAlign=top;spacingLeft=4;spacingRight=4;overflow=hidden;rotatable=0;points=[[0,0.5],[1,0.5]];portConstraint=eastwest;whiteSpace=wrap;html=1;" parent="fdN_00i1N7_ZULbD0-KX-64" vertex="1">
          <mxGeometry y="156" width="160" height="26" as="geometry" />
        </mxCell>
        <mxCell id="fdN_00i1N7_ZULbD0-KX-71" value="" style="line;strokeWidth=1;fillColor=none;align=left;verticalAlign=middle;spacingTop=-1;spacingLeft=3;spacingRight=3;rotatable=0;labelPosition=right;points=[];portConstraint=eastwest;strokeColor=inherit;" parent="fdN_00i1N7_ZULbD0-KX-64" vertex="1">
          <mxGeometry y="182" width="160" height="8" as="geometry" />
        </mxCell>
        <mxCell id="fdN_00i1N7_ZULbD0-KX-72" value="+attack() : type" style="text;strokeColor=none;fillColor=none;align=left;verticalAlign=top;spacingLeft=4;spacingRight=4;overflow=hidden;rotatable=0;points=[[0,0.5],[1,0.5]];portConstraint=eastwest;whiteSpace=wrap;html=1;" parent="fdN_00i1N7_ZULbD0-KX-64" vertex="1">
          <mxGeometry y="190" width="160" height="26" as="geometry" />
        </mxCell>
        <mxCell id="fdN_00i1N7_ZULbD0-KX-73" value="Sword" style="swimlane;fontStyle=1;align=center;verticalAlign=top;childLayout=stackLayout;horizontal=1;startSize=26;horizontalStack=0;resizeParent=1;resizeParentMax=0;resizeLast=0;collapsible=1;marginBottom=0;whiteSpace=wrap;html=1;" parent="1" vertex="1">
          <mxGeometry x="1006" y="687.5" width="160" height="60" as="geometry" />
        </mxCell>
        <mxCell id="fdN_00i1N7_ZULbD0-KX-74" value="" style="line;strokeWidth=1;fillColor=none;align=left;verticalAlign=middle;spacingTop=-1;spacingLeft=3;spacingRight=3;rotatable=0;labelPosition=right;points=[];portConstraint=eastwest;strokeColor=inherit;" parent="fdN_00i1N7_ZULbD0-KX-73" vertex="1">
          <mxGeometry y="26" width="160" height="8" as="geometry" />
        </mxCell>
        <mxCell id="fdN_00i1N7_ZULbD0-KX-75" value="+attack()" style="text;strokeColor=none;fillColor=none;align=left;verticalAlign=top;spacingLeft=4;spacingRight=4;overflow=hidden;rotatable=0;points=[[0,0.5],[1,0.5]];portConstraint=eastwest;whiteSpace=wrap;html=1;" parent="fdN_00i1N7_ZULbD0-KX-73" vertex="1">
          <mxGeometry y="34" width="160" height="26" as="geometry" />
        </mxCell>
        <mxCell id="fdN_00i1N7_ZULbD0-KX-76" value="" style="endArrow=block;endSize=16;endFill=0;html=1;rounded=0;" parent="1" source="fdN_00i1N7_ZULbD0-KX-73" target="fdN_00i1N7_ZULbD0-KX-64" edge="1">
          <mxGeometry width="160" relative="1" as="geometry">
            <mxPoint x="936" y="767.5" as="sourcePoint" />
            <mxPoint x="1096" y="767.5" as="targetPoint" />
            <Array as="points">
              <mxPoint x="1086" y="808.5" />
              <mxPoint x="1296" y="808.5" />
              <mxPoint x="1296" y="868.5" />
            </Array>
          </mxGeometry>
        </mxCell>
        <mxCell id="fdN_00i1N7_ZULbD0-KX-77" value="Bow" style="swimlane;fontStyle=1;align=center;verticalAlign=top;childLayout=stackLayout;horizontal=1;startSize=26;horizontalStack=0;resizeParent=1;resizeParentMax=0;resizeLast=0;collapsible=1;marginBottom=0;whiteSpace=wrap;html=1;" parent="1" vertex="1">
          <mxGeometry x="1216" y="687.5" width="160" height="60" as="geometry" />
        </mxCell>
        <mxCell id="fdN_00i1N7_ZULbD0-KX-78" value="" style="line;strokeWidth=1;fillColor=none;align=left;verticalAlign=middle;spacingTop=-1;spacingLeft=3;spacingRight=3;rotatable=0;labelPosition=right;points=[];portConstraint=eastwest;strokeColor=inherit;" parent="fdN_00i1N7_ZULbD0-KX-77" vertex="1">
          <mxGeometry y="26" width="160" height="8" as="geometry" />
        </mxCell>
        <mxCell id="fdN_00i1N7_ZULbD0-KX-79" value="+attack() " style="text;strokeColor=none;fillColor=none;align=left;verticalAlign=top;spacingLeft=4;spacingRight=4;overflow=hidden;rotatable=0;points=[[0,0.5],[1,0.5]];portConstraint=eastwest;whiteSpace=wrap;html=1;" parent="fdN_00i1N7_ZULbD0-KX-77" vertex="1">
          <mxGeometry y="34" width="160" height="26" as="geometry" />
        </mxCell>
        <mxCell id="fdN_00i1N7_ZULbD0-KX-80" value="" style="endArrow=block;endSize=16;endFill=0;html=1;rounded=0;" parent="1" source="fdN_00i1N7_ZULbD0-KX-77" target="fdN_00i1N7_ZULbD0-KX-64" edge="1">
          <mxGeometry width="160" relative="1" as="geometry">
            <mxPoint x="1136" y="891.5" as="sourcePoint" />
            <mxPoint x="1231" y="811.5" as="targetPoint" />
            <Array as="points" />
          </mxGeometry>
        </mxCell>
        <mxCell id="fdN_00i1N7_ZULbD0-KX-81" value="" style="endArrow=block;endSize=16;endFill=0;html=1;rounded=0;" parent="1" source="fdN_00i1N7_ZULbD0-KX-82" target="fdN_00i1N7_ZULbD0-KX-64" edge="1">
          <mxGeometry width="160" relative="1" as="geometry">
            <mxPoint x="1396" y="827.5" as="sourcePoint" />
            <mxPoint x="1491" y="747.5" as="targetPoint" />
            <Array as="points">
              <mxPoint x="1496" y="808.5" />
              <mxPoint x="1296" y="808.5" />
            </Array>
          </mxGeometry>
        </mxCell>
        <mxCell id="fdN_00i1N7_ZULbD0-KX-82" value="Saff" style="swimlane;fontStyle=1;align=center;verticalAlign=top;childLayout=stackLayout;horizontal=1;startSize=26;horizontalStack=0;resizeParent=1;resizeParentMax=0;resizeLast=0;collapsible=1;marginBottom=0;whiteSpace=wrap;html=1;" parent="1" vertex="1">
          <mxGeometry x="1416" y="687.5" width="160" height="60" as="geometry" />
        </mxCell>
        <mxCell id="fdN_00i1N7_ZULbD0-KX-83" value="" style="line;strokeWidth=1;fillColor=none;align=left;verticalAlign=middle;spacingTop=-1;spacingLeft=3;spacingRight=3;rotatable=0;labelPosition=right;points=[];portConstraint=eastwest;strokeColor=inherit;" parent="fdN_00i1N7_ZULbD0-KX-82" vertex="1">
          <mxGeometry y="26" width="160" height="8" as="geometry" />
        </mxCell>
        <mxCell id="fdN_00i1N7_ZULbD0-KX-84" value="+attack()" style="text;strokeColor=none;fillColor=none;align=left;verticalAlign=top;spacingLeft=4;spacingRight=4;overflow=hidden;rotatable=0;points=[[0,0.5],[1,0.5]];portConstraint=eastwest;whiteSpace=wrap;html=1;" parent="fdN_00i1N7_ZULbD0-KX-82" vertex="1">
          <mxGeometry y="34" width="160" height="26" as="geometry" />
        </mxCell>
        <mxCell id="fdN_00i1N7_ZULbD0-KX-85" value="Dagger" style="swimlane;fontStyle=1;align=center;verticalAlign=top;childLayout=stackLayout;horizontal=1;startSize=26;horizontalStack=0;resizeParent=1;resizeParentMax=0;resizeLast=0;collapsible=1;marginBottom=0;whiteSpace=wrap;html=1;" parent="1" vertex="1">
          <mxGeometry x="1436" y="838.5" width="160" height="60" as="geometry" />
        </mxCell>
        <mxCell id="fdN_00i1N7_ZULbD0-KX-86" value="" style="line;strokeWidth=1;fillColor=none;align=left;verticalAlign=middle;spacingTop=-1;spacingLeft=3;spacingRight=3;rotatable=0;labelPosition=right;points=[];portConstraint=eastwest;strokeColor=inherit;" parent="fdN_00i1N7_ZULbD0-KX-85" vertex="1">
          <mxGeometry y="26" width="160" height="8" as="geometry" />
        </mxCell>
        <mxCell id="fdN_00i1N7_ZULbD0-KX-87" value="+attack()" style="text;strokeColor=none;fillColor=none;align=left;verticalAlign=top;spacingLeft=4;spacingRight=4;overflow=hidden;rotatable=0;points=[[0,0.5],[1,0.5]];portConstraint=eastwest;whiteSpace=wrap;html=1;" parent="fdN_00i1N7_ZULbD0-KX-85" vertex="1">
          <mxGeometry y="34" width="160" height="26" as="geometry" />
        </mxCell>
        <mxCell id="fdN_00i1N7_ZULbD0-KX-88" value="" style="endArrow=block;endSize=16;endFill=0;html=1;rounded=0;" parent="1" source="fdN_00i1N7_ZULbD0-KX-85" target="fdN_00i1N7_ZULbD0-KX-64" edge="1">
          <mxGeometry width="160" relative="1" as="geometry">
            <mxPoint x="1486" y="717.5" as="sourcePoint" />
            <mxPoint x="1296" y="978.5" as="targetPoint" />
            <Array as="points">
              <mxPoint x="1296" y="868.5" />
            </Array>
          </mxGeometry>
        </mxCell>
        <mxCell id="fdN_00i1N7_ZULbD0-KX-89" value="Fists" style="swimlane;fontStyle=1;align=center;verticalAlign=top;childLayout=stackLayout;horizontal=1;startSize=26;horizontalStack=0;resizeParent=1;resizeParentMax=0;resizeLast=0;collapsible=1;marginBottom=0;whiteSpace=wrap;html=1;" parent="1" vertex="1">
          <mxGeometry x="1016" y="838.5" width="160" height="60" as="geometry" />
        </mxCell>
        <mxCell id="fdN_00i1N7_ZULbD0-KX-90" value="" style="line;strokeWidth=1;fillColor=none;align=left;verticalAlign=middle;spacingTop=-1;spacingLeft=3;spacingRight=3;rotatable=0;labelPosition=right;points=[];portConstraint=eastwest;strokeColor=inherit;" parent="fdN_00i1N7_ZULbD0-KX-89" vertex="1">
          <mxGeometry y="26" width="160" height="8" as="geometry" />
        </mxCell>
        <mxCell id="fdN_00i1N7_ZULbD0-KX-91" value="+attack()" style="text;strokeColor=none;fillColor=none;align=left;verticalAlign=top;spacingLeft=4;spacingRight=4;overflow=hidden;rotatable=0;points=[[0,0.5],[1,0.5]];portConstraint=eastwest;whiteSpace=wrap;html=1;" parent="fdN_00i1N7_ZULbD0-KX-89" vertex="1">
          <mxGeometry y="34" width="160" height="26" as="geometry" />
        </mxCell>
        <mxCell id="fdN_00i1N7_ZULbD0-KX-92" value="" style="endArrow=block;endSize=16;endFill=0;html=1;rounded=0;" parent="1" source="fdN_00i1N7_ZULbD0-KX-89" target="fdN_00i1N7_ZULbD0-KX-64" edge="1">
          <mxGeometry width="160" relative="1" as="geometry">
            <mxPoint x="1026" y="807.5" as="sourcePoint" />
            <mxPoint x="1170" y="911.5" as="targetPoint" />
            <Array as="points">
              <mxPoint x="1296" y="868.5" />
            </Array>
          </mxGeometry>
        </mxCell>
        <mxCell id="fdN_00i1N7_ZULbD0-KX-93" value="Shield" style="swimlane;fontStyle=1;align=center;verticalAlign=top;childLayout=stackLayout;horizontal=1;startSize=26;horizontalStack=0;resizeParent=1;resizeParentMax=0;resizeLast=0;collapsible=1;marginBottom=0;whiteSpace=wrap;html=1;" parent="1" vertex="1">
          <mxGeometry x="1436" y="928.5" width="160" height="86" as="geometry" />
        </mxCell>
        <mxCell id="fdN_00i1N7_ZULbD0-KX-94" value="" style="line;strokeWidth=1;fillColor=none;align=left;verticalAlign=middle;spacingTop=-1;spacingLeft=3;spacingRight=3;rotatable=0;labelPosition=right;points=[];portConstraint=eastwest;strokeColor=inherit;" parent="fdN_00i1N7_ZULbD0-KX-93" vertex="1">
          <mxGeometry y="26" width="160" height="8" as="geometry" />
        </mxCell>
        <mxCell id="fdN_00i1N7_ZULbD0-KX-95" value="+attack()" style="text;strokeColor=none;fillColor=none;align=left;verticalAlign=top;spacingLeft=4;spacingRight=4;overflow=hidden;rotatable=0;points=[[0,0.5],[1,0.5]];portConstraint=eastwest;whiteSpace=wrap;html=1;" parent="fdN_00i1N7_ZULbD0-KX-93" vertex="1">
          <mxGeometry y="34" width="160" height="26" as="geometry" />
        </mxCell>
        <mxCell id="fdN_00i1N7_ZULbD0-KX-96" value="+block()" style="text;strokeColor=none;fillColor=none;align=left;verticalAlign=top;spacingLeft=4;spacingRight=4;overflow=hidden;rotatable=0;points=[[0,0.5],[1,0.5]];portConstraint=eastwest;whiteSpace=wrap;html=1;" parent="fdN_00i1N7_ZULbD0-KX-93" vertex="1">
          <mxGeometry y="60" width="160" height="26" as="geometry" />
        </mxCell>
        <mxCell id="fdN_00i1N7_ZULbD0-KX-97" value="Inventory" style="swimlane;fontStyle=1;align=center;verticalAlign=top;childLayout=stackLayout;horizontal=1;startSize=26;horizontalStack=0;resizeParent=1;resizeParentMax=0;resizeLast=0;collapsible=1;marginBottom=0;whiteSpace=wrap;html=1;" parent="1" vertex="1">
          <mxGeometry x="886" y="1022.5" width="160" height="190" as="geometry" />
        </mxCell>
        <mxCell id="fdN_00i1N7_ZULbD0-KX-98" value="&lt;div&gt;+Weapons : int[]&lt;/div&gt;" style="text;strokeColor=none;fillColor=none;align=left;verticalAlign=top;spacingLeft=4;spacingRight=4;overflow=hidden;rotatable=0;points=[[0,0.5],[1,0.5]];portConstraint=eastwest;whiteSpace=wrap;html=1;" parent="fdN_00i1N7_ZULbD0-KX-97" vertex="1">
          <mxGeometry y="26" width="160" height="26" as="geometry" />
        </mxCell>
        <mxCell id="fdN_00i1N7_ZULbD0-KX-99" value="+Armour : int[]" style="text;strokeColor=none;fillColor=none;align=left;verticalAlign=top;spacingLeft=4;spacingRight=4;overflow=hidden;rotatable=0;points=[[0,0.5],[1,0.5]];portConstraint=eastwest;whiteSpace=wrap;html=1;" parent="fdN_00i1N7_ZULbD0-KX-97" vertex="1">
          <mxGeometry y="52" width="160" height="26" as="geometry" />
        </mxCell>
        <mxCell id="fdN_00i1N7_ZULbD0-KX-100" value="" style="line;strokeWidth=1;fillColor=none;align=left;verticalAlign=middle;spacingTop=-1;spacingLeft=3;spacingRight=3;rotatable=0;labelPosition=right;points=[];portConstraint=eastwest;strokeColor=inherit;" parent="fdN_00i1N7_ZULbD0-KX-97" vertex="1">
          <mxGeometry y="78" width="160" height="8" as="geometry" />
        </mxCell>
        <mxCell id="fdN_00i1N7_ZULbD0-KX-101" value="+addWeapon(type): type" style="text;strokeColor=none;fillColor=none;align=left;verticalAlign=top;spacingLeft=4;spacingRight=4;overflow=hidden;rotatable=0;points=[[0,0.5],[1,0.5]];portConstraint=eastwest;whiteSpace=wrap;html=1;" parent="fdN_00i1N7_ZULbD0-KX-97" vertex="1">
          <mxGeometry y="86" width="160" height="26" as="geometry" />
        </mxCell>
        <mxCell id="fdN_00i1N7_ZULbD0-KX-102" value="+addArmour(type): type" style="text;strokeColor=none;fillColor=none;align=left;verticalAlign=top;spacingLeft=4;spacingRight=4;overflow=hidden;rotatable=0;points=[[0,0.5],[1,0.5]];portConstraint=eastwest;whiteSpace=wrap;html=1;" parent="fdN_00i1N7_ZULbD0-KX-97" vertex="1">
          <mxGeometry y="112" width="160" height="26" as="geometry" />
        </mxCell>
        <mxCell id="fdN_00i1N7_ZULbD0-KX-103" value="+useArmour(int): type" style="text;strokeColor=none;fillColor=none;align=left;verticalAlign=top;spacingLeft=4;spacingRight=4;overflow=hidden;rotatable=0;points=[[0,0.5],[1,0.5]];portConstraint=eastwest;whiteSpace=wrap;html=1;" parent="fdN_00i1N7_ZULbD0-KX-97" vertex="1">
          <mxGeometry y="138" width="160" height="26" as="geometry" />
        </mxCell>
        <mxCell id="fdN_00i1N7_ZULbD0-KX-104" value="+useWeapon(int): type" style="text;strokeColor=none;fillColor=none;align=left;verticalAlign=top;spacingLeft=4;spacingRight=4;overflow=hidden;rotatable=0;points=[[0,0.5],[1,0.5]];portConstraint=eastwest;whiteSpace=wrap;html=1;" parent="fdN_00i1N7_ZULbD0-KX-97" vertex="1">
          <mxGeometry y="164" width="160" height="26" as="geometry" />
        </mxCell>
        <mxCell id="fdN_00i1N7_ZULbD0-KX-105" value="Abstract Armour" style="swimlane;fontStyle=1;align=center;verticalAlign=top;childLayout=stackLayout;horizontal=1;startSize=26;horizontalStack=0;resizeParent=1;resizeParentMax=0;resizeLast=0;collapsible=1;marginBottom=0;whiteSpace=wrap;html=1;" parent="1" vertex="1">
          <mxGeometry x="1216" y="1198.5" width="160" height="164" as="geometry" />
        </mxCell>
        <mxCell id="fdN_00i1N7_ZULbD0-KX-106" value="&lt;div&gt;+NameId : int&lt;/div&gt;" style="text;strokeColor=none;fillColor=none;align=left;verticalAlign=top;spacingLeft=4;spacingRight=4;overflow=hidden;rotatable=0;points=[[0,0.5],[1,0.5]];portConstraint=eastwest;whiteSpace=wrap;html=1;" parent="fdN_00i1N7_ZULbD0-KX-105" vertex="1">
          <mxGeometry y="26" width="160" height="26" as="geometry" />
        </mxCell>
        <mxCell id="fdN_00i1N7_ZULbD0-KX-107" value="+PhisicalProtection : int&lt;div&gt;&lt;br&gt;&lt;/div&gt;" style="text;strokeColor=none;fillColor=none;align=left;verticalAlign=top;spacingLeft=4;spacingRight=4;overflow=hidden;rotatable=0;points=[[0,0.5],[1,0.5]];portConstraint=eastwest;whiteSpace=wrap;html=1;" parent="fdN_00i1N7_ZULbD0-KX-105" vertex="1">
          <mxGeometry y="52" width="160" height="26" as="geometry" />
        </mxCell>
        <mxCell id="fdN_00i1N7_ZULbD0-KX-108" value="+MagicProtection : int" style="text;strokeColor=none;fillColor=none;align=left;verticalAlign=top;spacingLeft=4;spacingRight=4;overflow=hidden;rotatable=0;points=[[0,0.5],[1,0.5]];portConstraint=eastwest;whiteSpace=wrap;html=1;" parent="fdN_00i1N7_ZULbD0-KX-105" vertex="1">
          <mxGeometry y="78" width="160" height="26" as="geometry" />
        </mxCell>
        <mxCell id="fdN_00i1N7_ZULbD0-KX-109" value="+MSReduction : int" style="text;strokeColor=none;fillColor=none;align=left;verticalAlign=top;spacingLeft=4;spacingRight=4;overflow=hidden;rotatable=0;points=[[0,0.5],[1,0.5]];portConstraint=eastwest;whiteSpace=wrap;html=1;" parent="fdN_00i1N7_ZULbD0-KX-105" vertex="1">
          <mxGeometry y="104" width="160" height="26" as="geometry" />
        </mxCell>
        <mxCell id="fdN_00i1N7_ZULbD0-KX-110" value="" style="line;strokeWidth=1;fillColor=none;align=left;verticalAlign=middle;spacingTop=-1;spacingLeft=3;spacingRight=3;rotatable=0;labelPosition=right;points=[];portConstraint=eastwest;strokeColor=inherit;" parent="fdN_00i1N7_ZULbD0-KX-105" vertex="1">
          <mxGeometry y="130" width="160" height="8" as="geometry" />
        </mxCell>
        <mxCell id="fdN_00i1N7_ZULbD0-KX-111" value="+BlockDamage()" style="text;strokeColor=none;fillColor=none;align=left;verticalAlign=top;spacingLeft=4;spacingRight=4;overflow=hidden;rotatable=0;points=[[0,0.5],[1,0.5]];portConstraint=eastwest;whiteSpace=wrap;html=1;" parent="fdN_00i1N7_ZULbD0-KX-105" vertex="1">
          <mxGeometry y="138" width="160" height="26" as="geometry" />
        </mxCell>
        <mxCell id="fdN_00i1N7_ZULbD0-KX-112" value="Heavy Armour" style="swimlane;fontStyle=1;align=center;verticalAlign=top;childLayout=stackLayout;horizontal=1;startSize=26;horizontalStack=0;resizeParent=1;resizeParentMax=0;resizeLast=0;collapsible=1;marginBottom=0;whiteSpace=wrap;html=1;" parent="1" vertex="1">
          <mxGeometry x="1016" y="1468.5" width="160" height="34" as="geometry" />
        </mxCell>
        <mxCell id="fdN_00i1N7_ZULbD0-KX-114" value="Medium Armour" style="swimlane;fontStyle=1;align=center;verticalAlign=top;childLayout=stackLayout;horizontal=1;startSize=26;horizontalStack=0;resizeParent=1;resizeParentMax=0;resizeLast=0;collapsible=1;marginBottom=0;whiteSpace=wrap;html=1;" parent="1" vertex="1">
          <mxGeometry x="1216" y="1468.5" width="160" height="34" as="geometry" />
        </mxCell>
        <mxCell id="fdN_00i1N7_ZULbD0-KX-115" value="" style="line;strokeWidth=1;fillColor=none;align=left;verticalAlign=middle;spacingTop=-1;spacingLeft=3;spacingRight=3;rotatable=0;labelPosition=right;points=[];portConstraint=eastwest;strokeColor=inherit;" parent="fdN_00i1N7_ZULbD0-KX-114" vertex="1">
          <mxGeometry y="26" width="160" height="8" as="geometry" />
        </mxCell>
        <mxCell id="fdN_00i1N7_ZULbD0-KX-116" value="Light armour" style="swimlane;fontStyle=1;align=center;verticalAlign=top;childLayout=stackLayout;horizontal=1;startSize=26;horizontalStack=0;resizeParent=1;resizeParentMax=0;resizeLast=0;collapsible=1;marginBottom=0;whiteSpace=wrap;html=1;" parent="1" vertex="1">
          <mxGeometry x="1436" y="1468.5" width="160" height="34" as="geometry" />
        </mxCell>
        <mxCell id="fdN_00i1N7_ZULbD0-KX-117" value="" style="line;strokeWidth=1;fillColor=none;align=left;verticalAlign=middle;spacingTop=-1;spacingLeft=3;spacingRight=3;rotatable=0;labelPosition=right;points=[];portConstraint=eastwest;strokeColor=inherit;" parent="fdN_00i1N7_ZULbD0-KX-116" vertex="1">
          <mxGeometry y="26" width="160" height="8" as="geometry" />
        </mxCell>
        <mxCell id="fdN_00i1N7_ZULbD0-KX-118" value="" style="endArrow=block;endSize=16;endFill=0;html=1;rounded=0;" parent="1" source="fdN_00i1N7_ZULbD0-KX-112" target="fdN_00i1N7_ZULbD0-KX-105" edge="1">
          <mxGeometry width="160" relative="1" as="geometry">
            <mxPoint x="932" y="1127" as="sourcePoint" />
            <mxPoint x="1070" y="1278" as="targetPoint" />
            <Array as="points">
              <mxPoint x="1096" y="1418.5" />
              <mxPoint x="1296" y="1418.5" />
            </Array>
          </mxGeometry>
        </mxCell>
        <mxCell id="fdN_00i1N7_ZULbD0-KX-119" value="" style="endArrow=block;endSize=16;endFill=0;html=1;rounded=0;" parent="1" source="fdN_00i1N7_ZULbD0-KX-114" target="fdN_00i1N7_ZULbD0-KX-105" edge="1">
          <mxGeometry width="160" relative="1" as="geometry">
            <mxPoint x="1186" y="1137.5" as="sourcePoint" />
            <mxPoint x="1324" y="1288.5" as="targetPoint" />
          </mxGeometry>
        </mxCell>
        <mxCell id="fdN_00i1N7_ZULbD0-KX-120" value="" style="endArrow=block;endSize=16;endFill=0;html=1;rounded=0;" parent="1" source="fdN_00i1N7_ZULbD0-KX-116" target="fdN_00i1N7_ZULbD0-KX-105" edge="1">
          <mxGeometry width="160" relative="1" as="geometry">
            <mxPoint x="1236" y="1207.5" as="sourcePoint" />
            <mxPoint x="1374" y="1358.5" as="targetPoint" />
            <Array as="points">
              <mxPoint x="1516" y="1418.5" />
              <mxPoint x="1296" y="1418.5" />
            </Array>
          </mxGeometry>
        </mxCell>
        <mxCell id="fdN_00i1N7_ZULbD0-KX-130" value="" style="endArrow=block;endSize=16;endFill=0;html=1;rounded=0;" parent="1" source="fdN_00i1N7_ZULbD0-KX-93" target="fdN_00i1N7_ZULbD0-KX-64" edge="1">
          <mxGeometry width="160" relative="1" as="geometry">
            <mxPoint x="1344" y="727.5" as="sourcePoint" />
            <mxPoint x="1097" y="905.5" as="targetPoint" />
            <Array as="points">
              <mxPoint x="1296" y="868.5" />
            </Array>
          </mxGeometry>
        </mxCell>
        <mxCell id="fdN_00i1N7_ZULbD0-KX-131" value="Use" style="endArrow=open;endSize=12;dashed=1;html=1;rounded=0;" parent="1" source="fdN_00i1N7_ZULbD0-KX-64" target="fdN_00i1N7_ZULbD0-KX-98" edge="1">
          <mxGeometry width="160" relative="1" as="geometry">
            <mxPoint x="926" y="1048.5" as="sourcePoint" />
            <mxPoint x="1086" y="1048.5" as="targetPoint" />
          </mxGeometry>
        </mxCell>
        <mxCell id="fdN_00i1N7_ZULbD0-KX-132" value="Use" style="endArrow=open;endSize=12;dashed=1;html=1;rounded=0;" parent="1" source="fdN_00i1N7_ZULbD0-KX-105" target="fdN_00i1N7_ZULbD0-KX-97" edge="1">
          <mxGeometry width="160" relative="1" as="geometry">
            <mxPoint x="1006" y="1168.5" as="sourcePoint" />
            <mxPoint x="876" y="1192.5" as="targetPoint" />
          </mxGeometry>
        </mxCell>
        <mxCell id="fdN_00i1N7_ZULbD0-KX-136" value="Use" style="endArrow=open;endSize=12;dashed=1;html=1;rounded=0;" parent="1" source="fdN_00i1N7_ZULbD0-KX-97" target="fdN_00i1N7_ZULbD0-KX-138" edge="1">
          <mxGeometry width="160" relative="1" as="geometry">
            <mxPoint x="830" y="846" as="sourcePoint" />
            <mxPoint x="620" y="914.6363636363631" as="targetPoint" />
          </mxGeometry>
        </mxCell>
        <mxCell id="fdN_00i1N7_ZULbD0-KX-138" value="Abstract Character" style="swimlane;fontStyle=2;align=center;verticalAlign=top;childLayout=stackLayout;horizontal=1;startSize=26;horizontalStack=0;resizeParent=1;resizeLast=0;collapsible=1;marginBottom=0;rounded=0;shadow=0;strokeWidth=1;" parent="1" vertex="1">
          <mxGeometry x="660" y="812.5" width="160" height="610" as="geometry">
            <mxRectangle x="220" y="120" width="160" height="26" as="alternateBounds" />
          </mxGeometry>
        </mxCell>
        <object label="-Id : int" K="" id="fdN_00i1N7_ZULbD0-KX-139">
          <mxCell style="text;align=left;verticalAlign=top;spacingLeft=4;spacingRight=4;overflow=hidden;rotatable=0;points=[[0,0.5],[1,0.5]];portConstraint=eastwest;fontStyle=0" parent="fdN_00i1N7_ZULbD0-KX-138" vertex="1">
            <mxGeometry y="26" width="160" height="26" as="geometry" />
          </mxCell>
        </object>
        <object label="-Name : String" K="" id="fdN_00i1N7_ZULbD0-KX-140">
          <mxCell style="text;align=left;verticalAlign=top;spacingLeft=4;spacingRight=4;overflow=hidden;rotatable=0;points=[[0,0.5],[1,0.5]];portConstraint=eastwest;fontStyle=0" parent="fdN_00i1N7_ZULbD0-KX-138" vertex="1">
            <mxGeometry y="52" width="160" height="26" as="geometry" />
          </mxCell>
        </object>
        <object label="-Race : String" K="" id="fdN_00i1N7_ZULbD0-KX-141">
          <mxCell style="text;align=left;verticalAlign=top;spacingLeft=4;spacingRight=4;overflow=hidden;rotatable=0;points=[[0,0.5],[1,0.5]];portConstraint=eastwest;" parent="fdN_00i1N7_ZULbD0-KX-138" vertex="1">
            <mxGeometry y="78" width="160" height="26" as="geometry" />
          </mxCell>
        </object>
        <object label="-HpMax : final float&#xa;" K="" id="fdN_00i1N7_ZULbD0-KX-142">
          <mxCell style="text;align=left;verticalAlign=top;spacingLeft=4;spacingRight=4;overflow=hidden;rotatable=0;points=[[0,0.5],[1,0.5]];portConstraint=eastwest;" parent="fdN_00i1N7_ZULbD0-KX-138" vertex="1">
            <mxGeometry y="104" width="160" height="26" as="geometry" />
          </mxCell>
        </object>
        <object label="-CurrentHp : float" K="" id="fdN_00i1N7_ZULbD0-KX-143">
          <mxCell style="text;align=left;verticalAlign=top;spacingLeft=4;spacingRight=4;overflow=hidden;rotatable=0;points=[[0,0.5],[1,0.5]];portConstraint=eastwest;" parent="fdN_00i1N7_ZULbD0-KX-138" vertex="1">
            <mxGeometry y="130" width="160" height="26" as="geometry" />
          </mxCell>
        </object>
        <object label="-Strength : int&#xa;" K="" id="fdN_00i1N7_ZULbD0-KX-144">
          <mxCell style="text;align=left;verticalAlign=top;spacingLeft=4;spacingRight=4;overflow=hidden;rotatable=0;points=[[0,0.5],[1,0.5]];portConstraint=eastwest;" parent="fdN_00i1N7_ZULbD0-KX-138" vertex="1">
            <mxGeometry y="156" width="160" height="26" as="geometry" />
          </mxCell>
        </object>
        <object label="-Dexterity : int&#xa;" K="" id="fdN_00i1N7_ZULbD0-KX-145">
          <mxCell style="text;align=left;verticalAlign=top;spacingLeft=4;spacingRight=4;overflow=hidden;rotatable=0;points=[[0,0.5],[1,0.5]];portConstraint=eastwest;" parent="fdN_00i1N7_ZULbD0-KX-138" vertex="1">
            <mxGeometry y="182" width="160" height="26" as="geometry" />
          </mxCell>
        </object>
        <object label="-Movement : int" K="" id="fdN_00i1N7_ZULbD0-KX-146">
          <mxCell style="text;align=left;verticalAlign=top;spacingLeft=4;spacingRight=4;overflow=hidden;rotatable=0;points=[[0,0.5],[1,0.5]];portConstraint=eastwest;" parent="fdN_00i1N7_ZULbD0-KX-138" vertex="1">
            <mxGeometry y="208" width="160" height="26" as="geometry" />
          </mxCell>
        </object>
        <object label="-Inteligence : int&#xa;" K="" id="fdN_00i1N7_ZULbD0-KX-147">
          <mxCell style="text;align=left;verticalAlign=top;spacingLeft=4;spacingRight=4;overflow=hidden;rotatable=0;points=[[0,0.5],[1,0.5]];portConstraint=eastwest;" parent="fdN_00i1N7_ZULbD0-KX-138" vertex="1">
            <mxGeometry y="234" width="160" height="26" as="geometry" />
          </mxCell>
        </object>
        <object label="-DodgeChance : double" K="" id="fdN_00i1N7_ZULbD0-KX-148">
          <mxCell style="text;align=left;verticalAlign=top;spacingLeft=4;spacingRight=4;overflow=hidden;rotatable=0;points=[[0,0.5],[1,0.5]];portConstraint=eastwest;" parent="fdN_00i1N7_ZULbD0-KX-138" vertex="1">
            <mxGeometry y="260" width="160" height="26" as="geometry" />
          </mxCell>
        </object>
        <object label="+Inventory : inventory" K="" id="fdN_00i1N7_ZULbD0-KX-149">
          <mxCell style="text;align=left;verticalAlign=top;spacingLeft=4;spacingRight=4;overflow=hidden;rotatable=0;points=[[0,0.5],[1,0.5]];portConstraint=eastwest;" parent="fdN_00i1N7_ZULbD0-KX-138" vertex="1">
            <mxGeometry y="286" width="160" height="26" as="geometry" />
          </mxCell>
        </object>
        <object label="+InteligenceType : IntType" K="" id="fdN_00i1N7_ZULbD0-KX-150">
          <mxCell style="text;align=left;verticalAlign=top;spacingLeft=4;spacingRight=4;overflow=hidden;rotatable=0;points=[[0,0.5],[1,0.5]];portConstraint=eastwest;" parent="fdN_00i1N7_ZULbD0-KX-138" vertex="1">
            <mxGeometry y="312" width="160" height="26" as="geometry" />
          </mxCell>
        </object>
        <object label="-IsAlive : bool" K="" id="fdN_00i1N7_ZULbD0-KX-151">
          <mxCell style="text;align=left;verticalAlign=top;spacingLeft=4;spacingRight=4;overflow=hidden;rotatable=0;points=[[0,0.5],[1,0.5]];portConstraint=eastwest;" parent="fdN_00i1N7_ZULbD0-KX-138" vertex="1">
            <mxGeometry y="338" width="160" height="26" as="geometry" />
          </mxCell>
        </object>
        <mxCell id="fdN_00i1N7_ZULbD0-KX-152" value="" style="line;html=1;strokeWidth=1;align=left;verticalAlign=middle;spacingTop=-1;spacingLeft=3;spacingRight=3;rotatable=0;labelPosition=right;points=[];portConstraint=eastwest;" parent="fdN_00i1N7_ZULbD0-KX-138" vertex="1">
          <mxGeometry y="364" width="160" height="8" as="geometry" />
        </mxCell>
        <object label="+GetId()" K="" id="fdN_00i1N7_ZULbD0-KX-153">
          <mxCell style="text;align=left;verticalAlign=top;spacingLeft=4;spacingRight=4;overflow=hidden;rotatable=0;points=[[0,0.5],[1,0.5]];portConstraint=eastwest;" parent="fdN_00i1N7_ZULbD0-KX-138" vertex="1">
            <mxGeometry y="372" width="160" height="26" as="geometry" />
          </mxCell>
        </object>
        <object label="+GetRace()" K="" id="fdN_00i1N7_ZULbD0-KX-154">
          <mxCell style="text;align=left;verticalAlign=top;spacingLeft=4;spacingRight=4;overflow=hidden;rotatable=0;points=[[0,0.5],[1,0.5]];portConstraint=eastwest;" parent="fdN_00i1N7_ZULbD0-KX-138" vertex="1">
            <mxGeometry y="398" width="160" height="26" as="geometry" />
          </mxCell>
        </object>
        <object label="+GetHpmax()" K="" id="fdN_00i1N7_ZULbD0-KX-155">
          <mxCell style="text;align=left;verticalAlign=top;spacingLeft=4;spacingRight=4;overflow=hidden;rotatable=0;points=[[0,0.5],[1,0.5]];portConstraint=eastwest;" parent="fdN_00i1N7_ZULbD0-KX-138" vertex="1">
            <mxGeometry y="424" width="160" height="26" as="geometry" />
          </mxCell>
        </object>
        <object label="+GetCurrentHp()" K="" id="fdN_00i1N7_ZULbD0-KX-156">
          <mxCell style="text;align=left;verticalAlign=top;spacingLeft=4;spacingRight=4;overflow=hidden;rotatable=0;points=[[0,0.5],[1,0.5]];portConstraint=eastwest;" parent="fdN_00i1N7_ZULbD0-KX-138" vertex="1">
            <mxGeometry y="450" width="160" height="26" as="geometry" />
          </mxCell>
        </object>
        <object label="+GetInteligence()" K="" id="fdN_00i1N7_ZULbD0-KX-157">
          <mxCell style="text;align=left;verticalAlign=top;spacingLeft=4;spacingRight=4;overflow=hidden;rotatable=0;points=[[0,0.5],[1,0.5]];portConstraint=eastwest;" parent="fdN_00i1N7_ZULbD0-KX-138" vertex="1">
            <mxGeometry y="476" width="160" height="26" as="geometry" />
          </mxCell>
        </object>
        <object label="+GetMovement()" K="" id="fdN_00i1N7_ZULbD0-KX-158">
          <mxCell style="text;align=left;verticalAlign=top;spacingLeft=4;spacingRight=4;overflow=hidden;rotatable=0;points=[[0,0.5],[1,0.5]];portConstraint=eastwest;" parent="fdN_00i1N7_ZULbD0-KX-138" vertex="1">
            <mxGeometry y="502" width="160" height="26" as="geometry" />
          </mxCell>
        </object>
        <object label="+GetDodgeChance()" K="" id="fdN_00i1N7_ZULbD0-KX-159">
          <mxCell style="text;align=left;verticalAlign=top;spacingLeft=4;spacingRight=4;overflow=hidden;rotatable=0;points=[[0,0.5],[1,0.5]];portConstraint=eastwest;" parent="fdN_00i1N7_ZULbD0-KX-138" vertex="1">
            <mxGeometry y="528" width="160" height="26" as="geometry" />
          </mxCell>
        </object>
        <object label="+GetInventory()" K="" id="fdN_00i1N7_ZULbD0-KX-160">
          <mxCell style="text;align=left;verticalAlign=top;spacingLeft=4;spacingRight=4;overflow=hidden;rotatable=0;points=[[0,0.5],[1,0.5]];portConstraint=eastwest;" parent="fdN_00i1N7_ZULbD0-KX-138" vertex="1">
            <mxGeometry y="554" width="160" height="26" as="geometry" />
          </mxCell>
        </object>
        <object label="+GetIntType()" K="" id="fdN_00i1N7_ZULbD0-KX-161">
          <mxCell style="text;align=left;verticalAlign=top;spacingLeft=4;spacingRight=4;overflow=hidden;rotatable=0;points=[[0,0.5],[1,0.5]];portConstraint=eastwest;" parent="fdN_00i1N7_ZULbD0-KX-138" vertex="1">
            <mxGeometry y="580" width="160" height="26" as="geometry" />
          </mxCell>
        </object>
        <mxCell id="fdN_00i1N7_ZULbD0-KX-162" value="Abstract Mage" style="swimlane;fontStyle=1;align=center;verticalAlign=top;childLayout=stackLayout;horizontal=1;startSize=26;horizontalStack=0;resizeParent=1;resizeParentMax=0;resizeLast=0;collapsible=1;marginBottom=0;whiteSpace=wrap;html=1;" parent="1" vertex="1">
          <mxGeometry x="480" y="1560" width="160" height="112" as="geometry" />
        </mxCell>
        <mxCell id="fdN_00i1N7_ZULbD0-KX-163" value="-MagicCtriChance : int" style="text;strokeColor=none;fillColor=none;align=left;verticalAlign=top;spacingLeft=4;spacingRight=4;overflow=hidden;rotatable=0;points=[[0,0.5],[1,0.5]];portConstraint=eastwest;whiteSpace=wrap;html=1;" parent="fdN_00i1N7_ZULbD0-KX-162" vertex="1">
          <mxGeometry y="26" width="160" height="26" as="geometry" />
        </mxCell>
        <mxCell id="fdN_00i1N7_ZULbD0-KX-164" value="-MagicCritValue : int" style="text;strokeColor=none;fillColor=none;align=left;verticalAlign=top;spacingLeft=4;spacingRight=4;overflow=hidden;rotatable=0;points=[[0,0.5],[1,0.5]];portConstraint=eastwest;whiteSpace=wrap;html=1;" parent="fdN_00i1N7_ZULbD0-KX-162" vertex="1">
          <mxGeometry y="52" width="160" height="26" as="geometry" />
        </mxCell>
        <mxCell id="fdN_00i1N7_ZULbD0-KX-165" value="" style="line;strokeWidth=1;fillColor=none;align=left;verticalAlign=middle;spacingTop=-1;spacingLeft=3;spacingRight=3;rotatable=0;labelPosition=right;points=[];portConstraint=eastwest;strokeColor=inherit;" parent="fdN_00i1N7_ZULbD0-KX-162" vertex="1">
          <mxGeometry y="78" width="160" height="8" as="geometry" />
        </mxCell>
        <mxCell id="fdN_00i1N7_ZULbD0-KX-166" value="+MagicCrit() " style="text;strokeColor=none;fillColor=none;align=left;verticalAlign=top;spacingLeft=4;spacingRight=4;overflow=hidden;rotatable=0;points=[[0,0.5],[1,0.5]];portConstraint=eastwest;whiteSpace=wrap;html=1;" parent="fdN_00i1N7_ZULbD0-KX-162" vertex="1">
          <mxGeometry y="86" width="160" height="26" as="geometry" />
        </mxCell>
        <mxCell id="fdN_00i1N7_ZULbD0-KX-167" value="Abstract Rouge" style="swimlane;fontStyle=1;align=center;verticalAlign=top;childLayout=stackLayout;horizontal=1;startSize=26;horizontalStack=0;resizeParent=1;resizeParentMax=0;resizeLast=0;collapsible=1;marginBottom=0;whiteSpace=wrap;html=1;" parent="1" vertex="1">
          <mxGeometry x="680" y="1560" width="160" height="60" as="geometry" />
        </mxCell>
        <mxCell id="fdN_00i1N7_ZULbD0-KX-168" value="-SecoundMove : bool" style="text;strokeColor=none;fillColor=none;align=left;verticalAlign=top;spacingLeft=4;spacingRight=4;overflow=hidden;rotatable=0;points=[[0,0.5],[1,0.5]];portConstraint=eastwest;whiteSpace=wrap;html=1;" parent="fdN_00i1N7_ZULbD0-KX-167" vertex="1">
          <mxGeometry y="26" width="160" height="26" as="geometry" />
        </mxCell>
        <mxCell id="fdN_00i1N7_ZULbD0-KX-169" value="" style="line;strokeWidth=1;fillColor=none;align=left;verticalAlign=middle;spacingTop=-1;spacingLeft=3;spacingRight=3;rotatable=0;labelPosition=right;points=[];portConstraint=eastwest;strokeColor=inherit;" parent="fdN_00i1N7_ZULbD0-KX-167" vertex="1">
          <mxGeometry y="52" width="160" height="8" as="geometry" />
        </mxCell>
        <mxCell id="fdN_00i1N7_ZULbD0-KX-170" value="" style="endArrow=block;endSize=16;endFill=0;html=1;rounded=0;exitX=0.533;exitY=-0.007;exitDx=0;exitDy=0;exitPerimeter=0;" parent="1" source="fdN_00i1N7_ZULbD0-KX-167" target="fdN_00i1N7_ZULbD0-KX-138" edge="1">
          <mxGeometry width="160" relative="1" as="geometry">
            <mxPoint x="726" y="1240" as="sourcePoint" />
            <mxPoint x="500" y="1430" as="targetPoint" />
            <Array as="points">
              <mxPoint x="765" y="1510" />
              <mxPoint x="480" y="1510" />
            </Array>
          </mxGeometry>
        </mxCell>
        <mxCell id="fdN_00i1N7_ZULbD0-KX-171" value="Knight" style="swimlane;fontStyle=1;align=center;verticalAlign=top;childLayout=stackLayout;horizontal=1;startSize=26;horizontalStack=0;resizeParent=1;resizeParentMax=0;resizeLast=0;collapsible=1;marginBottom=0;whiteSpace=wrap;html=1;" parent="1" vertex="1">
          <mxGeometry x="90" y="1760" width="160" height="60" as="geometry" />
        </mxCell>
        <mxCell id="fdN_00i1N7_ZULbD0-KX-172" value="" style="line;strokeWidth=1;fillColor=none;align=left;verticalAlign=middle;spacingTop=-1;spacingLeft=3;spacingRight=3;rotatable=0;labelPosition=right;points=[];portConstraint=eastwest;strokeColor=inherit;" parent="fdN_00i1N7_ZULbD0-KX-171" vertex="1">
          <mxGeometry y="26" width="160" height="8" as="geometry" />
        </mxCell>
        <mxCell id="fdN_00i1N7_ZULbD0-KX-173" value="+Knight()" style="text;strokeColor=none;fillColor=none;align=left;verticalAlign=top;spacingLeft=4;spacingRight=4;overflow=hidden;rotatable=0;points=[[0,0.5],[1,0.5]];portConstraint=eastwest;whiteSpace=wrap;html=1;" parent="fdN_00i1N7_ZULbD0-KX-171" vertex="1">
          <mxGeometry y="34" width="160" height="26" as="geometry" />
        </mxCell>
        <mxCell id="fdN_00i1N7_ZULbD0-KX-174" value="" style="endArrow=block;endSize=16;endFill=0;html=1;rounded=0;" parent="1" source="fdN_00i1N7_ZULbD0-KX-171" target="fdN_00i1N7_ZULbD0-KX-183" edge="1">
          <mxGeometry width="160" relative="1" as="geometry">
            <mxPoint x="161.72413793103397" y="1760" as="sourcePoint" />
            <mxPoint x="151.7391304347825" y="1632" as="targetPoint" />
          </mxGeometry>
        </mxCell>
        <mxCell id="fdN_00i1N7_ZULbD0-KX-175" value="Ranger" style="swimlane;fontStyle=1;align=center;verticalAlign=top;childLayout=stackLayout;horizontal=1;startSize=26;horizontalStack=0;resizeParent=1;resizeParentMax=0;resizeLast=0;collapsible=1;marginBottom=0;whiteSpace=wrap;html=1;" parent="1" vertex="1">
          <mxGeometry x="295" y="1760" width="160" height="60" as="geometry" />
        </mxCell>
        <mxCell id="fdN_00i1N7_ZULbD0-KX-176" value="" style="line;strokeWidth=1;fillColor=none;align=left;verticalAlign=middle;spacingTop=-1;spacingLeft=3;spacingRight=3;rotatable=0;labelPosition=right;points=[];portConstraint=eastwest;strokeColor=inherit;" parent="fdN_00i1N7_ZULbD0-KX-175" vertex="1">
          <mxGeometry y="26" width="160" height="8" as="geometry" />
        </mxCell>
        <mxCell id="fdN_00i1N7_ZULbD0-KX-177" value="+Ranger()" style="text;strokeColor=none;fillColor=none;align=left;verticalAlign=top;spacingLeft=4;spacingRight=4;overflow=hidden;rotatable=0;points=[[0,0.5],[1,0.5]];portConstraint=eastwest;whiteSpace=wrap;html=1;" parent="fdN_00i1N7_ZULbD0-KX-175" vertex="1">
          <mxGeometry y="34" width="160" height="26" as="geometry" />
        </mxCell>
        <mxCell id="fdN_00i1N7_ZULbD0-KX-178" value="Archmage" style="swimlane;fontStyle=1;align=center;verticalAlign=top;childLayout=stackLayout;horizontal=1;startSize=26;horizontalStack=0;resizeParent=1;resizeParentMax=0;resizeLast=0;collapsible=1;marginBottom=0;whiteSpace=wrap;html=1;" parent="1" vertex="1">
          <mxGeometry x="480" y="1760" width="160" height="60" as="geometry" />
        </mxCell>
        <mxCell id="fdN_00i1N7_ZULbD0-KX-179" value="" style="line;strokeWidth=1;fillColor=none;align=left;verticalAlign=middle;spacingTop=-1;spacingLeft=3;spacingRight=3;rotatable=0;labelPosition=right;points=[];portConstraint=eastwest;strokeColor=inherit;" parent="fdN_00i1N7_ZULbD0-KX-178" vertex="1">
          <mxGeometry y="26" width="160" height="8" as="geometry" />
        </mxCell>
        <mxCell id="fdN_00i1N7_ZULbD0-KX-180" value="+Archmage()" style="text;strokeColor=none;fillColor=none;align=left;verticalAlign=top;spacingLeft=4;spacingRight=4;overflow=hidden;rotatable=0;points=[[0,0.5],[1,0.5]];portConstraint=eastwest;whiteSpace=wrap;html=1;" parent="fdN_00i1N7_ZULbD0-KX-178" vertex="1">
          <mxGeometry y="34" width="160" height="26" as="geometry" />
        </mxCell>
        <mxCell id="fdN_00i1N7_ZULbD0-KX-181" value="" style="endArrow=block;endSize=16;endFill=0;html=1;rounded=0;" parent="1" source="fdN_00i1N7_ZULbD0-KX-178" target="fdN_00i1N7_ZULbD0-KX-162" edge="1">
          <mxGeometry width="160" relative="1" as="geometry">
            <mxPoint x="540" y="1760" as="sourcePoint" />
            <mxPoint x="540" y="1630" as="targetPoint" />
          </mxGeometry>
        </mxCell>
        <mxCell id="fdN_00i1N7_ZULbD0-KX-182" value="" style="endArrow=block;endSize=16;endFill=0;html=1;rounded=0;" parent="1" source="fdN_00i1N7_ZULbD0-KX-197" target="fdN_00i1N7_ZULbD0-KX-167" edge="1">
          <mxGeometry width="160" relative="1" as="geometry">
            <mxPoint x="760" y="1760" as="sourcePoint" />
            <mxPoint x="720" y="1660" as="targetPoint" />
          </mxGeometry>
        </mxCell>
        <mxCell id="fdN_00i1N7_ZULbD0-KX-183" value="Abstract Warrior" style="swimlane;fontStyle=1;align=center;verticalAlign=top;childLayout=stackLayout;horizontal=1;startSize=26;horizontalStack=0;resizeParent=1;resizeParentMax=0;resizeLast=0;collapsible=1;marginBottom=0;whiteSpace=wrap;html=1;" parent="1" vertex="1">
          <mxGeometry x="90" y="1560" width="160" height="112" as="geometry" />
        </mxCell>
        <mxCell id="fdN_00i1N7_ZULbD0-KX-184" value="-BlockChance : int" style="text;strokeColor=none;fillColor=none;align=left;verticalAlign=top;spacingLeft=4;spacingRight=4;overflow=hidden;rotatable=0;points=[[0,0.5],[1,0.5]];portConstraint=eastwest;whiteSpace=wrap;html=1;" parent="fdN_00i1N7_ZULbD0-KX-183" vertex="1">
          <mxGeometry y="26" width="160" height="26" as="geometry" />
        </mxCell>
        <mxCell id="fdN_00i1N7_ZULbD0-KX-185" value="-BlockValue : int" style="text;strokeColor=none;fillColor=none;align=left;verticalAlign=top;spacingLeft=4;spacingRight=4;overflow=hidden;rotatable=0;points=[[0,0.5],[1,0.5]];portConstraint=eastwest;whiteSpace=wrap;html=1;" parent="fdN_00i1N7_ZULbD0-KX-183" vertex="1">
          <mxGeometry y="52" width="160" height="26" as="geometry" />
        </mxCell>
        <mxCell id="fdN_00i1N7_ZULbD0-KX-186" value="" style="line;strokeWidth=1;fillColor=none;align=left;verticalAlign=middle;spacingTop=-1;spacingLeft=3;spacingRight=3;rotatable=0;labelPosition=right;points=[];portConstraint=eastwest;strokeColor=inherit;" parent="fdN_00i1N7_ZULbD0-KX-183" vertex="1">
          <mxGeometry y="78" width="160" height="8" as="geometry" />
        </mxCell>
        <mxCell id="fdN_00i1N7_ZULbD0-KX-187" value="+PassiveBlock()" style="text;strokeColor=none;fillColor=none;align=left;verticalAlign=top;spacingLeft=4;spacingRight=4;overflow=hidden;rotatable=0;points=[[0,0.5],[1,0.5]];portConstraint=eastwest;whiteSpace=wrap;html=1;" parent="fdN_00i1N7_ZULbD0-KX-183" vertex="1">
          <mxGeometry y="86" width="160" height="26" as="geometry" />
        </mxCell>
        <mxCell id="fdN_00i1N7_ZULbD0-KX-188" value="Abstract Shooter" style="swimlane;fontStyle=1;align=center;verticalAlign=top;childLayout=stackLayout;horizontal=1;startSize=26;horizontalStack=0;resizeParent=1;resizeParentMax=0;resizeLast=0;collapsible=1;marginBottom=0;whiteSpace=wrap;html=1;" parent="1" vertex="1">
          <mxGeometry x="294" y="1560" width="160" height="112" as="geometry" />
        </mxCell>
        <mxCell id="fdN_00i1N7_ZULbD0-KX-189" value="-CtritChance : int" style="text;strokeColor=none;fillColor=none;align=left;verticalAlign=top;spacingLeft=4;spacingRight=4;overflow=hidden;rotatable=0;points=[[0,0.5],[1,0.5]];portConstraint=eastwest;whiteSpace=wrap;html=1;" parent="fdN_00i1N7_ZULbD0-KX-188" vertex="1">
          <mxGeometry y="26" width="160" height="26" as="geometry" />
        </mxCell>
        <mxCell id="fdN_00i1N7_ZULbD0-KX-190" value="-CritValue : int" style="text;strokeColor=none;fillColor=none;align=left;verticalAlign=top;spacingLeft=4;spacingRight=4;overflow=hidden;rotatable=0;points=[[0,0.5],[1,0.5]];portConstraint=eastwest;whiteSpace=wrap;html=1;" parent="fdN_00i1N7_ZULbD0-KX-188" vertex="1">
          <mxGeometry y="52" width="160" height="26" as="geometry" />
        </mxCell>
        <mxCell id="fdN_00i1N7_ZULbD0-KX-191" value="" style="line;strokeWidth=1;fillColor=none;align=left;verticalAlign=middle;spacingTop=-1;spacingLeft=3;spacingRight=3;rotatable=0;labelPosition=right;points=[];portConstraint=eastwest;strokeColor=inherit;" parent="fdN_00i1N7_ZULbD0-KX-188" vertex="1">
          <mxGeometry y="78" width="160" height="8" as="geometry" />
        </mxCell>
        <mxCell id="fdN_00i1N7_ZULbD0-KX-192" value="+DoesCrit()" style="text;strokeColor=none;fillColor=none;align=left;verticalAlign=top;spacingLeft=4;spacingRight=4;overflow=hidden;rotatable=0;points=[[0,0.5],[1,0.5]];portConstraint=eastwest;whiteSpace=wrap;html=1;" parent="fdN_00i1N7_ZULbD0-KX-188" vertex="1">
          <mxGeometry y="86" width="160" height="26" as="geometry" />
        </mxCell>
        <mxCell id="fdN_00i1N7_ZULbD0-KX-193" value="" style="endArrow=block;endSize=16;endFill=0;html=1;rounded=0;" parent="1" source="fdN_00i1N7_ZULbD0-KX-175" target="fdN_00i1N7_ZULbD0-KX-188" edge="1">
          <mxGeometry width="160" relative="1" as="geometry">
            <mxPoint x="353.5" y="1734" as="sourcePoint" />
            <mxPoint x="366.5" y="1690" as="targetPoint" />
          </mxGeometry>
        </mxCell>
        <mxCell id="fdN_00i1N7_ZULbD0-KX-194" value="" style="endArrow=block;endSize=16;endFill=0;html=1;rounded=0;exitX=0.5;exitY=0;exitDx=0;exitDy=0;" parent="1" source="fdN_00i1N7_ZULbD0-KX-162" target="fdN_00i1N7_ZULbD0-KX-138" edge="1">
          <mxGeometry width="160" relative="1" as="geometry">
            <mxPoint x="708" y="1596" as="sourcePoint" />
            <mxPoint x="460" y="1430" as="targetPoint" />
            <Array as="points">
              <mxPoint x="560" y="1510" />
              <mxPoint x="480" y="1510" />
            </Array>
          </mxGeometry>
        </mxCell>
        <mxCell id="fdN_00i1N7_ZULbD0-KX-195" value="" style="endArrow=block;endSize=16;endFill=0;html=1;rounded=0;exitX=0.5;exitY=0;exitDx=0;exitDy=0;" parent="1" source="fdN_00i1N7_ZULbD0-KX-188" target="fdN_00i1N7_ZULbD0-KX-138" edge="1">
          <mxGeometry width="160" relative="1" as="geometry">
            <mxPoint x="530" y="1570" as="sourcePoint" />
            <mxPoint x="480" y="1400" as="targetPoint" />
            <Array as="points">
              <mxPoint x="374" y="1510" />
              <mxPoint x="480" y="1510" />
            </Array>
          </mxGeometry>
        </mxCell>
        <mxCell id="fdN_00i1N7_ZULbD0-KX-196" value="" style="endArrow=block;endSize=16;endFill=0;html=1;rounded=0;exitX=0.5;exitY=0;exitDx=0;exitDy=0;" parent="1" source="fdN_00i1N7_ZULbD0-KX-183" target="fdN_00i1N7_ZULbD0-KX-138" edge="1">
          <mxGeometry width="160" relative="1" as="geometry">
            <mxPoint x="384" y="1570" as="sourcePoint" />
            <mxPoint x="370" y="1430" as="targetPoint" />
            <Array as="points">
              <mxPoint x="170" y="1510" />
              <mxPoint x="480" y="1510" />
            </Array>
          </mxGeometry>
        </mxCell>
        <mxCell id="fdN_00i1N7_ZULbD0-KX-197" value="Assassin" style="swimlane;fontStyle=1;align=center;verticalAlign=top;childLayout=stackLayout;horizontal=1;startSize=26;horizontalStack=0;resizeParent=1;resizeParentMax=0;resizeLast=0;collapsible=1;marginBottom=0;whiteSpace=wrap;html=1;" parent="1" vertex="1">
          <mxGeometry x="680" y="1760" width="160" height="60" as="geometry" />
        </mxCell>
        <mxCell id="fdN_00i1N7_ZULbD0-KX-198" value="" style="line;strokeWidth=1;fillColor=none;align=left;verticalAlign=middle;spacingTop=-1;spacingLeft=3;spacingRight=3;rotatable=0;labelPosition=right;points=[];portConstraint=eastwest;strokeColor=inherit;" parent="fdN_00i1N7_ZULbD0-KX-197" vertex="1">
          <mxGeometry y="26" width="160" height="8" as="geometry" />
        </mxCell>
        <mxCell id="fdN_00i1N7_ZULbD0-KX-199" value="+Assassin()" style="text;strokeColor=none;fillColor=none;align=left;verticalAlign=top;spacingLeft=4;spacingRight=4;overflow=hidden;rotatable=0;points=[[0,0.5],[1,0.5]];portConstraint=eastwest;whiteSpace=wrap;html=1;" parent="fdN_00i1N7_ZULbD0-KX-197" vertex="1">
          <mxGeometry y="34" width="160" height="26" as="geometry" />
        </mxCell>
        <mxCell id="fdN_00i1N7_ZULbD0-KX-200" value="Simulation" style="swimlane;fontStyle=1;align=center;verticalAlign=top;childLayout=stackLayout;horizontal=1;startSize=26;horizontalStack=0;resizeParent=1;resizeParentMax=0;resizeLast=0;collapsible=1;marginBottom=0;whiteSpace=wrap;html=1;" parent="1" vertex="1">
          <mxGeometry x="400" y="110" width="160" height="86" as="geometry" />
        </mxCell>
        <mxCell id="fdN_00i1N7_ZULbD0-KX-201" value="+ field: type" style="text;strokeColor=none;fillColor=none;align=left;verticalAlign=top;spacingLeft=4;spacingRight=4;overflow=hidden;rotatable=0;points=[[0,0.5],[1,0.5]];portConstraint=eastwest;whiteSpace=wrap;html=1;" parent="fdN_00i1N7_ZULbD0-KX-200" vertex="1">
          <mxGeometry y="26" width="160" height="26" as="geometry" />
        </mxCell>
        <mxCell id="fdN_00i1N7_ZULbD0-KX-202" value="" style="line;strokeWidth=1;fillColor=none;align=left;verticalAlign=middle;spacingTop=-1;spacingLeft=3;spacingRight=3;rotatable=0;labelPosition=right;points=[];portConstraint=eastwest;strokeColor=inherit;" parent="fdN_00i1N7_ZULbD0-KX-200" vertex="1">
          <mxGeometry y="52" width="160" height="8" as="geometry" />
        </mxCell>
        <mxCell id="fdN_00i1N7_ZULbD0-KX-203" value="+ method(type): type" style="text;strokeColor=none;fillColor=none;align=left;verticalAlign=top;spacingLeft=4;spacingRight=4;overflow=hidden;rotatable=0;points=[[0,0.5],[1,0.5]];portConstraint=eastwest;whiteSpace=wrap;html=1;" parent="fdN_00i1N7_ZULbD0-KX-200" vertex="1">
          <mxGeometry y="60" width="160" height="26" as="geometry" />
        </mxCell>
        <mxCell id="fdN_00i1N7_ZULbD0-KX-204" value="Combat" style="swimlane;fontStyle=1;align=center;verticalAlign=top;childLayout=stackLayout;horizontal=1;startSize=26;horizontalStack=0;resizeParent=1;resizeParentMax=0;resizeLast=0;collapsible=1;marginBottom=0;whiteSpace=wrap;html=1;" parent="1" vertex="1">
          <mxGeometry y="430" width="170" height="86" as="geometry" />
        </mxCell>
        <mxCell id="fdN_00i1N7_ZULbD0-KX-206" value="" style="line;strokeWidth=1;fillColor=none;align=left;verticalAlign=middle;spacingTop=-1;spacingLeft=3;spacingRight=3;rotatable=0;labelPosition=right;points=[];portConstraint=eastwest;strokeColor=inherit;" parent="fdN_00i1N7_ZULbD0-KX-204" vertex="1">
          <mxGeometry y="26" width="170" height="8" as="geometry" />
        </mxCell>
        <mxCell id="fdN_00i1N7_ZULbD0-KX-267" value="+ dealDamage(Character,int)" style="text;strokeColor=none;fillColor=none;align=left;verticalAlign=top;spacingLeft=4;spacingRight=4;overflow=hidden;rotatable=0;points=[[0,0.5],[1,0.5]];portConstraint=eastwest;whiteSpace=wrap;html=1;" parent="fdN_00i1N7_ZULbD0-KX-204" vertex="1">
          <mxGeometry y="34" width="170" height="26" as="geometry" />
        </mxCell>
        <mxCell id="fdN_00i1N7_ZULbD0-KX-207" value="+ heal(Character)" style="text;strokeColor=none;fillColor=none;align=left;verticalAlign=top;spacingLeft=4;spacingRight=4;overflow=hidden;rotatable=0;points=[[0,0.5],[1,0.5]];portConstraint=eastwest;whiteSpace=wrap;html=1;" parent="fdN_00i1N7_ZULbD0-KX-204" vertex="1">
          <mxGeometry y="60" width="170" height="26" as="geometry" />
        </mxCell>
        <mxCell id="fdN_00i1N7_ZULbD0-KX-211" value="" style="endArrow=diamondThin;endFill=0;endSize=24;html=1;rounded=0;" parent="1" source="fdN_00i1N7_ZULbD0-KX-200" target="fdN_00i1N7_ZULbD0-KX-1" edge="1">
          <mxGeometry width="160" relative="1" as="geometry">
            <mxPoint x="690" y="70" as="sourcePoint" />
            <mxPoint x="775" y="90" as="targetPoint" />
          </mxGeometry>
        </mxCell>
        <mxCell id="fdN_00i1N7_ZULbD0-KX-212" value="" style="endArrow=diamondThin;endFill=0;endSize=24;html=1;rounded=0;" parent="1" source="fdN_00i1N7_ZULbD0-KX-200" target="fdN_00i1N7_ZULbD0-KX-45" edge="1">
          <mxGeometry width="160" relative="1" as="geometry">
            <mxPoint x="100" y="192" as="sourcePoint" />
            <mxPoint x="285" y="110" as="targetPoint" />
          </mxGeometry>
        </mxCell>
        <mxCell id="fdN_00i1N7_ZULbD0-KX-215" value="" style="endArrow=diamondThin;endFill=1;endSize=24;html=1;rounded=0;" parent="1" source="fdN_00i1N7_ZULbD0-KX-5" target="fdN_00i1N7_ZULbD0-KX-22" edge="1">
          <mxGeometry width="160" relative="1" as="geometry">
            <mxPoint x="605" y="503" as="sourcePoint" />
            <mxPoint x="711" y="378" as="targetPoint" />
          </mxGeometry>
        </mxCell>
        <mxCell id="fdN_00i1N7_ZULbD0-KX-216" value="" style="endArrow=diamondThin;endFill=1;endSize=24;html=1;rounded=0;" parent="1" source="fdN_00i1N7_ZULbD0-KX-5" target="fdN_00i1N7_ZULbD0-KX-1" edge="1">
          <mxGeometry width="160" relative="1" as="geometry">
            <mxPoint x="615" y="513" as="sourcePoint" />
            <mxPoint x="721" y="388" as="targetPoint" />
          </mxGeometry>
        </mxCell>
        <mxCell id="fdN_00i1N7_ZULbD0-KX-219" value="Clone" style="endArrow=open;endSize=12;dashed=1;html=1;rounded=0;" parent="1" source="fdN_00i1N7_ZULbD0-KX-1" target="fdN_00i1N7_ZULbD0-KX-22" edge="1">
          <mxGeometry width="160" relative="1" as="geometry">
            <mxPoint x="610" y="590" as="sourcePoint" />
            <mxPoint x="770" y="590" as="targetPoint" />
          </mxGeometry>
        </mxCell>
        <mxCell id="fdN_00i1N7_ZULbD0-KX-220" value="" style="endArrow=diamondThin;endFill=0;endSize=24;html=1;rounded=0;entryX=0.528;entryY=0.012;entryDx=0;entryDy=0;entryPerimeter=0;" parent="1" source="fdN_00i1N7_ZULbD0-KX-45" target="fdN_00i1N7_ZULbD0-KX-204" edge="1">
          <mxGeometry width="160" relative="1" as="geometry">
            <mxPoint x="281" y="412" as="sourcePoint" />
            <mxPoint x="70" y="330" as="targetPoint" />
            <Array as="points">
              <mxPoint x="90" y="280" />
            </Array>
          </mxGeometry>
        </mxCell>
        <mxCell id="fdN_00i1N7_ZULbD0-KX-222" value="Team" style="swimlane;fontStyle=1;align=center;verticalAlign=top;childLayout=stackLayout;horizontal=1;startSize=26;horizontalStack=0;resizeParent=1;resizeParentMax=0;resizeLast=0;collapsible=1;marginBottom=0;whiteSpace=wrap;html=1;" parent="1" vertex="1">
          <mxGeometry x="120" y="812.5" width="190" height="86" as="geometry" />
        </mxCell>
        <mxCell id="fdN_00i1N7_ZULbD0-KX-223" value="+ ArrayList&amp;lt;Character&amp;gt; team" style="text;strokeColor=none;fillColor=none;align=left;verticalAlign=top;spacingLeft=4;spacingRight=4;overflow=hidden;rotatable=0;points=[[0,0.5],[1,0.5]];portConstraint=eastwest;whiteSpace=wrap;html=1;" parent="fdN_00i1N7_ZULbD0-KX-222" vertex="1">
          <mxGeometry y="26" width="190" height="26" as="geometry" />
        </mxCell>
        <mxCell id="fdN_00i1N7_ZULbD0-KX-224" value="" style="line;strokeWidth=1;fillColor=none;align=left;verticalAlign=middle;spacingTop=-1;spacingLeft=3;spacingRight=3;rotatable=0;labelPosition=right;points=[];portConstraint=eastwest;strokeColor=inherit;" parent="fdN_00i1N7_ZULbD0-KX-222" vertex="1">
          <mxGeometry y="52" width="190" height="8" as="geometry" />
        </mxCell>
        <mxCell id="fdN_00i1N7_ZULbD0-KX-225" value="+ method(type): type" style="text;strokeColor=none;fillColor=none;align=left;verticalAlign=top;spacingLeft=4;spacingRight=4;overflow=hidden;rotatable=0;points=[[0,0.5],[1,0.5]];portConstraint=eastwest;whiteSpace=wrap;html=1;" parent="fdN_00i1N7_ZULbD0-KX-222" vertex="1">
          <mxGeometry y="60" width="190" height="26" as="geometry" />
        </mxCell>
        <mxCell id="fdN_00i1N7_ZULbD0-KX-228" value="" style="endArrow=open;endFill=1;endSize=12;html=1;rounded=0;" parent="1" source="fdN_00i1N7_ZULbD0-KX-138" target="fdN_00i1N7_ZULbD0-KX-222" edge="1">
          <mxGeometry width="160" relative="1" as="geometry">
            <mxPoint x="380" y="890" as="sourcePoint" />
            <mxPoint x="540" y="890" as="targetPoint" />
            <Array as="points">
              <mxPoint x="480" y="1115" />
              <mxPoint x="480" y="856" />
            </Array>
          </mxGeometry>
        </mxCell>
        <mxCell id="fdN_00i1N7_ZULbD0-KX-229" value="Use" style="endArrow=open;endSize=12;dashed=1;html=1;rounded=0;exitX=0.283;exitY=1.077;exitDx=0;exitDy=0;exitPerimeter=0;entryX=0.313;entryY=0.203;entryDx=0;entryDy=0;entryPerimeter=0;" parent="1" source="fdN_00i1N7_ZULbD0-KX-48" target="fdN_00i1N7_ZULbD0-KX-222" edge="1">
          <mxGeometry width="160" relative="1" as="geometry">
            <mxPoint x="70" y="758" as="sourcePoint" />
            <mxPoint x="230" y="758" as="targetPoint" />
          </mxGeometry>
        </mxCell>
        <mxCell id="fdN_00i1N7_ZULbD0-KX-230" value="Use" style="endArrow=open;endSize=12;dashed=1;html=1;rounded=0;" parent="1" source="fdN_00i1N7_ZULbD0-KX-5" target="fdN_00i1N7_ZULbD0-KX-138" edge="1">
          <mxGeometry width="160" relative="1" as="geometry">
            <mxPoint x="856" y="830" as="sourcePoint" />
            <mxPoint x="1016" y="830" as="targetPoint" />
          </mxGeometry>
        </mxCell>
        <mxCell id="fdN_00i1N7_ZULbD0-KX-232" value="" style="endArrow=diamondThin;endFill=0;endSize=24;html=1;rounded=0;" parent="1" source="fdN_00i1N7_ZULbD0-KX-138" target="fdN_00i1N7_ZULbD0-KX-45" edge="1">
          <mxGeometry width="160" relative="1" as="geometry">
            <mxPoint x="254" y="730" as="sourcePoint" />
            <mxPoint x="414" y="730" as="targetPoint" />
            <Array as="points">
              <mxPoint x="640" y="760" />
              <mxPoint x="225" y="760" />
            </Array>
          </mxGeometry>
        </mxCell>
        <mxCell id="fdN_00i1N7_ZULbD0-KX-233" value="Agresive" style="swimlane;fontStyle=1;align=center;verticalAlign=top;childLayout=stackLayout;horizontal=1;startSize=26;horizontalStack=0;resizeParent=1;resizeParentMax=0;resizeLast=0;collapsible=1;marginBottom=0;whiteSpace=wrap;html=1;" parent="1" vertex="1">
          <mxGeometry x="960" y="430" width="160" height="60" as="geometry" />
        </mxCell>
        <mxCell id="fdN_00i1N7_ZULbD0-KX-235" value="" style="line;strokeWidth=1;fillColor=none;align=left;verticalAlign=middle;spacingTop=-1;spacingLeft=3;spacingRight=3;rotatable=0;labelPosition=right;points=[];portConstraint=eastwest;strokeColor=inherit;" parent="fdN_00i1N7_ZULbD0-KX-233" vertex="1">
          <mxGeometry y="26" width="160" height="8" as="geometry" />
        </mxCell>
        <mxCell id="fdN_00i1N7_ZULbD0-KX-236" value="+ performTurn();" style="text;strokeColor=none;fillColor=none;align=left;verticalAlign=top;spacingLeft=4;spacingRight=4;overflow=hidden;rotatable=0;points=[[0,0.5],[1,0.5]];portConstraint=eastwest;whiteSpace=wrap;html=1;" parent="fdN_00i1N7_ZULbD0-KX-233" vertex="1">
          <mxGeometry y="34" width="160" height="26" as="geometry" />
        </mxCell>
        <mxCell id="fdN_00i1N7_ZULbD0-KX-239" value="Coward" style="swimlane;fontStyle=1;align=center;verticalAlign=top;childLayout=stackLayout;horizontal=1;startSize=26;horizontalStack=0;resizeParent=1;resizeParentMax=0;resizeLast=0;collapsible=1;marginBottom=0;whiteSpace=wrap;html=1;" parent="1" vertex="1">
          <mxGeometry x="1158" y="430" width="170" height="112" as="geometry" />
        </mxCell>
        <mxCell id="fdN_00i1N7_ZULbD0-KX-240" value="- boolean fleaing" style="text;strokeColor=none;fillColor=none;align=left;verticalAlign=top;spacingLeft=4;spacingRight=4;overflow=hidden;rotatable=0;points=[[0,0.5],[1,0.5]];portConstraint=eastwest;whiteSpace=wrap;html=1;" parent="fdN_00i1N7_ZULbD0-KX-239" vertex="1">
          <mxGeometry y="26" width="170" height="26" as="geometry" />
        </mxCell>
        <mxCell id="fdN_00i1N7_ZULbD0-KX-266" value="- ArrayList&amp;lt;Character&amp;gt; allies" style="text;strokeColor=none;fillColor=none;align=left;verticalAlign=top;spacingLeft=4;spacingRight=4;overflow=hidden;rotatable=0;points=[[0,0.5],[1,0.5]];portConstraint=eastwest;whiteSpace=wrap;html=1;" parent="fdN_00i1N7_ZULbD0-KX-239" vertex="1">
          <mxGeometry y="52" width="170" height="26" as="geometry" />
        </mxCell>
        <mxCell id="fdN_00i1N7_ZULbD0-KX-241" value="" style="line;strokeWidth=1;fillColor=none;align=left;verticalAlign=middle;spacingTop=-1;spacingLeft=3;spacingRight=3;rotatable=0;labelPosition=right;points=[];portConstraint=eastwest;strokeColor=inherit;" parent="fdN_00i1N7_ZULbD0-KX-239" vertex="1">
          <mxGeometry y="78" width="170" height="8" as="geometry" />
        </mxCell>
        <mxCell id="fdN_00i1N7_ZULbD0-KX-242" value="+ performTurn()" style="text;strokeColor=none;fillColor=none;align=left;verticalAlign=top;spacingLeft=4;spacingRight=4;overflow=hidden;rotatable=0;points=[[0,0.5],[1,0.5]];portConstraint=eastwest;whiteSpace=wrap;html=1;" parent="fdN_00i1N7_ZULbD0-KX-239" vertex="1">
          <mxGeometry y="86" width="170" height="26" as="geometry" />
        </mxCell>
        <mxCell id="fdN_00i1N7_ZULbD0-KX-245" value="InteligenceType" style="swimlane;fontStyle=1;align=center;verticalAlign=top;childLayout=stackLayout;horizontal=1;startSize=26;horizontalStack=0;resizeParent=1;resizeParentMax=0;resizeLast=0;collapsible=1;marginBottom=0;whiteSpace=wrap;html=1;" parent="1" vertex="1">
          <mxGeometry x="1138" y="42" width="210" height="268" as="geometry" />
        </mxCell>
        <mxCell id="fdN_00i1N7_ZULbD0-KX-246" value="- Arraylist&amp;lt;character&amp;gt; Enemies" style="text;strokeColor=none;fillColor=none;align=left;verticalAlign=top;spacingLeft=4;spacingRight=4;overflow=hidden;rotatable=0;points=[[0,0.5],[1,0.5]];portConstraint=eastwest;whiteSpace=wrap;html=1;" parent="fdN_00i1N7_ZULbD0-KX-245" vertex="1">
          <mxGeometry y="26" width="210" height="26" as="geometry" />
        </mxCell>
        <mxCell id="fdN_00i1N7_ZULbD0-KX-247" value="- Character owner" style="text;strokeColor=none;fillColor=none;align=left;verticalAlign=top;spacingLeft=4;spacingRight=4;overflow=hidden;rotatable=0;points=[[0,0.5],[1,0.5]];portConstraint=eastwest;whiteSpace=wrap;html=1;" parent="fdN_00i1N7_ZULbD0-KX-245" vertex="1">
          <mxGeometry y="52" width="210" height="26" as="geometry" />
        </mxCell>
        <mxCell id="fdN_00i1N7_ZULbD0-KX-248" value="- Character target" style="text;strokeColor=none;fillColor=none;align=left;verticalAlign=top;spacingLeft=4;spacingRight=4;overflow=hidden;rotatable=0;points=[[0,0.5],[1,0.5]];portConstraint=eastwest;whiteSpace=wrap;html=1;" parent="fdN_00i1N7_ZULbD0-KX-245" vertex="1">
          <mxGeometry y="78" width="210" height="26" as="geometry" />
        </mxCell>
        <mxCell id="fdN_00i1N7_ZULbD0-KX-251" value="-boolean inCombat" style="text;strokeColor=none;fillColor=none;align=left;verticalAlign=top;spacingLeft=4;spacingRight=4;overflow=hidden;rotatable=0;points=[[0,0.5],[1,0.5]];portConstraint=eastwest;whiteSpace=wrap;html=1;" parent="fdN_00i1N7_ZULbD0-KX-245" vertex="1">
          <mxGeometry y="104" width="210" height="26" as="geometry" />
        </mxCell>
        <mxCell id="fdN_00i1N7_ZULbD0-KX-252" value="-boolean injured" style="text;strokeColor=none;fillColor=none;align=left;verticalAlign=top;spacingLeft=4;spacingRight=4;overflow=hidden;rotatable=0;points=[[0,0.5],[1,0.5]];portConstraint=eastwest;whiteSpace=wrap;html=1;" parent="fdN_00i1N7_ZULbD0-KX-245" vertex="1">
          <mxGeometry y="130" width="210" height="26" as="geometry" />
        </mxCell>
        <mxCell id="fdN_00i1N7_ZULbD0-KX-253" value="-boolean readytTofight" style="text;strokeColor=none;fillColor=none;align=left;verticalAlign=top;spacingLeft=4;spacingRight=4;overflow=hidden;rotatable=0;points=[[0,0.5],[1,0.5]];portConstraint=eastwest;whiteSpace=wrap;html=1;" parent="fdN_00i1N7_ZULbD0-KX-245" vertex="1">
          <mxGeometry y="156" width="210" height="26" as="geometry" />
        </mxCell>
        <mxCell id="fdN_00i1N7_ZULbD0-KX-249" value="" style="line;strokeWidth=1;fillColor=none;align=left;verticalAlign=middle;spacingTop=-1;spacingLeft=3;spacingRight=3;rotatable=0;labelPosition=right;points=[];portConstraint=eastwest;strokeColor=inherit;" parent="fdN_00i1N7_ZULbD0-KX-245" vertex="1">
          <mxGeometry y="182" width="210" height="8" as="geometry" />
        </mxCell>
        <mxCell id="fdN_00i1N7_ZULbD0-KX-250" value="+ abstract performTurn();" style="text;strokeColor=none;fillColor=none;align=left;verticalAlign=top;spacingLeft=4;spacingRight=4;overflow=hidden;rotatable=0;points=[[0,0.5],[1,0.5]];portConstraint=eastwest;whiteSpace=wrap;html=1;" parent="fdN_00i1N7_ZULbD0-KX-245" vertex="1">
          <mxGeometry y="190" width="210" height="26" as="geometry" />
        </mxCell>
        <mxCell id="fdN_00i1N7_ZULbD0-KX-269" value="- lookForTarget(); Changes Target" style="text;strokeColor=none;fillColor=none;align=left;verticalAlign=top;spacingLeft=4;spacingRight=4;overflow=hidden;rotatable=0;points=[[0,0.5],[1,0.5]];portConstraint=eastwest;whiteSpace=wrap;html=1;" parent="fdN_00i1N7_ZULbD0-KX-245" vertex="1">
          <mxGeometry y="216" width="210" height="26" as="geometry" />
        </mxCell>
        <mxCell id="fdN_00i1N7_ZULbD0-KX-270" value="- moveTowardsOpponent(target);" style="text;strokeColor=none;fillColor=none;align=left;verticalAlign=top;spacingLeft=4;spacingRight=4;overflow=hidden;rotatable=0;points=[[0,0.5],[1,0.5]];portConstraint=eastwest;whiteSpace=wrap;html=1;" parent="fdN_00i1N7_ZULbD0-KX-245" vertex="1">
          <mxGeometry y="242" width="210" height="26" as="geometry" />
        </mxCell>
        <mxCell id="fdN_00i1N7_ZULbD0-KX-254" value="Strategis" style="swimlane;fontStyle=1;align=center;verticalAlign=top;childLayout=stackLayout;horizontal=1;startSize=26;horizontalStack=0;resizeParent=1;resizeParentMax=0;resizeLast=0;collapsible=1;marginBottom=0;whiteSpace=wrap;html=1;" parent="1" vertex="1">
          <mxGeometry x="1360" y="430" width="180" height="112" as="geometry" />
        </mxCell>
        <mxCell id="fdN_00i1N7_ZULbD0-KX-255" value="- boolean wellpositioned" style="text;strokeColor=none;fillColor=none;align=left;verticalAlign=top;spacingLeft=4;spacingRight=4;overflow=hidden;rotatable=0;points=[[0,0.5],[1,0.5]];portConstraint=eastwest;whiteSpace=wrap;html=1;" parent="fdN_00i1N7_ZULbD0-KX-254" vertex="1">
          <mxGeometry y="26" width="180" height="26" as="geometry" />
        </mxCell>
        <mxCell id="fdN_00i1N7_ZULbD0-KX-268" value="- ArrayList&amp;lt;Character&amp;gt; allies" style="text;strokeColor=none;fillColor=none;align=left;verticalAlign=top;spacingLeft=4;spacingRight=4;overflow=hidden;rotatable=0;points=[[0,0.5],[1,0.5]];portConstraint=eastwest;whiteSpace=wrap;html=1;" parent="fdN_00i1N7_ZULbD0-KX-254" vertex="1">
          <mxGeometry y="52" width="180" height="26" as="geometry" />
        </mxCell>
        <mxCell id="fdN_00i1N7_ZULbD0-KX-256" value="" style="line;strokeWidth=1;fillColor=none;align=left;verticalAlign=middle;spacingTop=-1;spacingLeft=3;spacingRight=3;rotatable=0;labelPosition=right;points=[];portConstraint=eastwest;strokeColor=inherit;" parent="fdN_00i1N7_ZULbD0-KX-254" vertex="1">
          <mxGeometry y="78" width="180" height="8" as="geometry" />
        </mxCell>
        <mxCell id="fdN_00i1N7_ZULbD0-KX-257" value="+ performTurn()" style="text;strokeColor=none;fillColor=none;align=left;verticalAlign=top;spacingLeft=4;spacingRight=4;overflow=hidden;rotatable=0;points=[[0,0.5],[1,0.5]];portConstraint=eastwest;whiteSpace=wrap;html=1;" parent="fdN_00i1N7_ZULbD0-KX-254" vertex="1">
          <mxGeometry y="86" width="180" height="26" as="geometry" />
        </mxCell>
        <mxCell id="fdN_00i1N7_ZULbD0-KX-263" value="" style="endArrow=block;endSize=16;endFill=0;html=1;rounded=0;" parent="1" source="fdN_00i1N7_ZULbD0-KX-233" target="fdN_00i1N7_ZULbD0-KX-245" edge="1">
          <mxGeometry width="160" relative="1" as="geometry">
            <mxPoint x="1050" y="331" as="sourcePoint" />
            <mxPoint x="1050" y="243" as="targetPoint" />
            <Array as="points">
              <mxPoint x="1040" y="380" />
              <mxPoint x="1243" y="380" />
            </Array>
          </mxGeometry>
        </mxCell>
        <mxCell id="fdN_00i1N7_ZULbD0-KX-264" value="" style="endArrow=block;endSize=16;endFill=0;html=1;rounded=0;" parent="1" source="fdN_00i1N7_ZULbD0-KX-239" target="fdN_00i1N7_ZULbD0-KX-245" edge="1">
          <mxGeometry width="160" relative="1" as="geometry">
            <mxPoint x="1088" y="362" as="sourcePoint" />
            <mxPoint x="1158" y="281" as="targetPoint" />
            <Array as="points" />
          </mxGeometry>
        </mxCell>
        <mxCell id="fdN_00i1N7_ZULbD0-KX-265" value="" style="endArrow=block;endSize=16;endFill=0;html=1;rounded=0;" parent="1" source="fdN_00i1N7_ZULbD0-KX-254" target="fdN_00i1N7_ZULbD0-KX-245" edge="1">
          <mxGeometry width="160" relative="1" as="geometry">
            <mxPoint x="1390" y="362" as="sourcePoint" />
            <mxPoint x="1393" y="281" as="targetPoint" />
            <Array as="points">
              <mxPoint x="1450" y="380" />
              <mxPoint x="1243" y="380" />
            </Array>
          </mxGeometry>
        </mxCell>
        <mxCell id="fdN_00i1N7_ZULbD0-KX-113" value="" style="line;strokeWidth=1;fillColor=none;align=left;verticalAlign=middle;spacingTop=-1;spacingLeft=3;spacingRight=3;rotatable=0;labelPosition=right;points=[];portConstraint=eastwest;strokeColor=inherit;" parent="1" vertex="1">
          <mxGeometry x="1650" y="508" width="160" height="8" as="geometry" />
        </mxCell>
        <mxCell id="fdN_00i1N7_ZULbD0-KX-4" value="static ChangeLocation(Tile)" style="text;strokeColor=none;fillColor=none;align=left;verticalAlign=top;spacingLeft=4;spacingRight=4;overflow=hidden;rotatable=0;points=[[0,0.5],[1,0.5]];portConstraint=eastwest;whiteSpace=wrap;html=1;" parent="1" vertex="1">
          <mxGeometry x="660" y="322" width="170" height="28" as="geometry" />
        </mxCell>
        <mxCell id="AV32lh2W1iDgs8U5TrCA-1" value="" style="endArrow=diamondThin;endFill=1;endSize=24;html=1;rounded=0;" edge="1" parent="1" source="fdN_00i1N7_ZULbD0-KX-138" target="fdN_00i1N7_ZULbD0-KX-45">
          <mxGeometry width="160" relative="1" as="geometry">
            <mxPoint x="630" y="690" as="sourcePoint" />
            <mxPoint x="790" y="690" as="targetPoint" />
            <Array as="points">
              <mxPoint x="640" y="760" />
              <mxPoint x="225" y="760" />
            </Array>
          </mxGeometry>
        </mxCell>
      </root>
    </mxGraphModel>
  </diagram>
</mxfile>
